<?xml version="1.0" standalone="no"?>
<!DOCTYPE svg PUBLIC "-//W3C//DTD SVG 1.1//EN" "http://www.w3.org/Graphics/SVG/1.1/DTD/svg11.dtd" >
<svg xmlns="http://www.w3.org/2000/svg">
<metadata></metadata>
<defs>
<font id="vetkaregular" horiz-adv-x="880" >
<font-face units-per-em="2048" ascent="1536" descent="-512" />
<missing-glyph horiz-adv-x="512" />
<glyph horiz-adv-x="0" />
<glyph horiz-adv-x="682" />
<glyph horiz-adv-x="0" />
<glyph horiz-adv-x="0" />
<glyph unicode="&#xd;" horiz-adv-x="1024" />
<glyph unicode=" "  horiz-adv-x="512" />
<glyph unicode="&#x09;" horiz-adv-x="512" />
<glyph unicode="&#xa0;" horiz-adv-x="512" />
<glyph unicode="!" horiz-adv-x="512" d="M215 35v86q0 13 10.5 24t24.5 11t24.5 -11t10.5 -24v-86q0 -13 -10.5 -24t-24.5 -11t-24.5 11t-10.5 24zM215 276v955q0 15 10.5 25t24.5 10t24.5 -10t10.5 -25v-955q0 -15 -10.5 -24.5t-24.5 -9.5t-24.5 9.5t-10.5 24.5z" />
<glyph unicode="&#x22;" horiz-adv-x="0" />
<glyph unicode="#" horiz-adv-x="940" d="M41 416q0 14 10 24.5t25 10.5h160l34 256q1 15 12.5 23.5t26.5 6.5q14 -2 23 -14t6 -25l-33 -247h279l49 364h-191q-64 0 -104 49q-43 -49 -105 -49h-100q-13 0 -24 10.5t-11 24.5q0 15 10.5 25t24.5 10h100q27 0 46 20t24 53l37 277q1 13 13 23t26 8t23 -14t6 -25 q-35 -266 -35 -273q0 -29 20.5 -49t48.5 -20h201l45 350q3 14 14.5 23t24.5 8q15 -1 24 -13t7 -26l-45 -342h149q15 0 25 -10t10 -25q0 -14 -10 -24.5t-25 -10.5h-160l-49 -364h152q13 0 24 -10.5t11 -24.5q0 -15 -10.5 -25t-24.5 -10h-160l-47 -350q-1 -15 -13 -24t-26 -7 q-13 1 -23 13t-8 26l47 342h-280l-47 -350q-1 -15 -12.5 -24t-26.5 -7q-13 1 -22 13t-7 26l45 342h-149q-15 0 -25 10t-10 25z" />
<glyph unicode="$" horiz-adv-x="927" d="M102 340q0 14 11 24.5t24 10.5t24 -10.5t11 -24.5q0 -112 79 -191t191 -79h43q113 0 192 79t79 191q0 69 -33.5 129.5t-91.5 97.5q-11 11 -385 193q-41 21 -71 65.5t-30 100.5q0 130 89 227t217 111v135q0 14 10.5 24.5t23.5 10.5t24 -11t11 -24v-135q121 -12 205 -99 q11 -11 11 -25t-11 -24q-9 -9 -23.5 -9.5t-25.5 9.5q-77 80 -191 80q-113 0 -191.5 -79t-78.5 -191q0 -35 18 -63.5t43 -41.5q33 -16 122.5 -56t154.5 -72.5t115 -65.5q74 -47 115.5 -123t41.5 -164q0 -132 -88 -229t-217 -109v-162q0 -14 -11 -24.5t-24 -10.5t-23.5 10.5 t-10.5 24.5v160q-153 0 -251 98.5t-98 241.5z" />
<glyph unicode="%" horiz-adv-x="735" d="M0 932v149q0 76 54.5 130.5t129.5 54.5q76 0 130.5 -54t54.5 -131q0 -20 -8.5 -38t-17.5 -28.5t-28 -27.5q-11 -9 -25.5 -8t-23.5 12t-8 25.5t12 23.5q29 23 29 41q0 47 -34 81t-81 34t-80.5 -34t-33.5 -81v-149q0 -46 33.5 -80.5t80.5 -34.5t82 35q9 9 23.5 9.5 t25.5 -9.5q9 -10 9 -25t-9 -24q-58 -55 -131 -55q-75 0 -129.5 54.5t-54.5 129.5zM2.5 26.5q-3.5 14.5 3.5 26.5l664 1194q8 12 21.5 16.5t25.5 -1.5q12 -8 15.5 -23t-3.5 -27l-661 -1194q-8 -12 -22 -15.5t-28 3.5q-12 6 -15.5 20.5zM367 182q0 51 53 94q11 10 25.5 9 t23.5 -13q9 -11 8 -25.5t-12 -23.5q-29 -23 -29 -41q0 -47 33.5 -79.5t81.5 -32.5q47 0 81 33t34 79v150q0 47 -34 80.5t-81 33.5q-48 0 -80 -32q-11 -10 -25.5 -10t-23.5 10q-10 9 -10 23.5t10 25.5q53 53 129 53q77 0 130.5 -54t53.5 -130v-150q0 -75 -54 -128.5 t-130 -53.5t-130 53.5t-54 128.5z" />
<glyph unicode="&#x26;" horiz-adv-x="1024" d="M102 340v283q0 49 35 79l99 82q10 9 12 23.5t-6 26.5q-64 85 -64 170q0 108 78 185t186 77t187 -76q9 -10 9 -25t-9 -24q-11 -11 -25.5 -11t-23.5 11q-55 55 -138 55q-79 0 -136.5 -57t-57.5 -135q0 -39 17.5 -79t70.5 -104q8 -10 6 -24t-12 -23q-7 -5 -40.5 -33t-68 -58 t-37.5 -32q-12 -12 -12 -28v-283q0 -111 79 -190.5t191 -79.5t191.5 79.5t79.5 190.5v160l-17 -13q-80 -47 -174 -47q-14 0 -24.5 11t-10.5 24q0 15 10.5 25t24.5 10q76 0 137 37q148 99 205 129q56 29 113 29q14 0 24.5 -10t10.5 -25q0 -14 -11 -24.5t-24 -10.5 q-43 0 -78 -21q-52 -27 -117 -71v-473q0 -48 34 -82.5t83 -34.5q15 0 25 -10.5t10 -24.5t-10 -24.5t-25 -10.5q-76 0 -131 55t-55 132v65q-48 -63 -118.5 -99t-152.5 -36q-141 0 -240.5 100t-99.5 240z" />
<glyph unicode="'" horiz-adv-x="274" />
<glyph unicode="(" horiz-adv-x="307" d="M0 236v471q0 460 168 555q14 7 27.5 3t21.5 -16q6 -12 3 -26t-15 -21q-20 -12 -39 -36.5t-43 -76.5t-38.5 -151t-14.5 -231v-471q0 -107 10.5 -193t25 -137t34.5 -88t35 -52.5t30 -23.5q12 -7 15 -22t-3 -27q-17 -26 -49 -12q-168 100 -168 555z" />
<glyph unicode=")" horiz-adv-x="307" d="M1 -280q3 15 15 22q20 11 39.5 36t43.5 77t38.5 151t14.5 230v471q0 132 -14.5 231t-39 151t-43.5 76.5t-39 36.5q-12 7 -15 21t3 26q8 12 21.5 16t27.5 -3q168 -95 168 -555v-471q0 -455 -168 -555q-32 -14 -49 12q-6 12 -3 27z" />
<glyph unicode="*" horiz-adv-x="634" d="M61 862q4 14 17 21l166 96l-166 96q-12 8 -15.5 21.5t3.5 25.5q6 12 20.5 16t26.5 -3l166 -97v193q0 15 9.5 25t24.5 10q13 0 24 -11t11 -24v-193l168 97q12 6 26 2.5t21 -15.5q7 -14 3.5 -27.5t-15.5 -21.5l-166 -94l164 -98q13 -6 17 -20.5t-3 -26.5q-8 -12 -22.5 -16 t-26.5 3l-166 97v-193q0 -13 -11 -24t-24 -11q-15 0 -24.5 10.5t-9.5 24.5v193l-166 -97q-14 -6 -28 -1.5t-22 16.5q-6 12 -2 26z" />
<glyph unicode="+" horiz-adv-x="1132" d="M102 580q0 14 10 24t25 10h393v410q0 14 11 24.5t24 10.5q15 0 25 -10.5t10 -24.5v-410h395q14 0 24.5 -10.5t10.5 -23.5q0 -15 -10.5 -25t-24.5 -10h-395v-410q0 -14 -10 -24.5t-25 -10.5q-13 0 -24 11t-11 24v410h-393q-15 0 -25 10t-10 25z" />
<glyph unicode="," horiz-adv-x="274" d="M-16 -82q0 14 10.5 24.5t23.5 10.5h9q32 3 53.5 27.5t21.5 56.5v84q0 13 11 24t24 11q15 0 25 -10.5t10 -24.5v-86q0 -59 -39.5 -102.5t-99.5 -49.5h-15q-13 0 -23.5 10.5t-10.5 24.5z" />
<glyph unicode="-" horiz-adv-x="645" d="M102 586q0 14 11 24.5t24 10.5h371q15 0 25 -10.5t10 -24.5q0 -15 -10 -25t-25 -10h-371q-14 0 -24.5 10t-10.5 25z" />
<glyph unicode="." horiz-adv-x="272" d="M102 37v84q0 14 10 24.5t25 10.5q13 0 24 -11t11 -24v-84q0 -15 -10.5 -25t-24.5 -10q-15 0 -25 10t-10 25z" />
<glyph unicode="/" horiz-adv-x="565" d="M1.5 21.5q-4.5 13.5 2.5 27.5l494 1165q6 13 20 18t27 -1q12 -6 17 -19.5t-1 -25.5l-495 -1168q-6 -12 -20 -17t-28 1q-12 6 -16.5 19.5z" />
<glyph unicode="0" d="M102 340q0 38 15.5 75.5t40.5 55.5l524 377q31 22 31 78q0 112 -79 191t-192 79q-110 0 -191.5 -80.5t-78.5 -189.5v-211q0 -12 29 -41q11 -9 12 -23t-8 -26q-9 -11 -23.5 -12t-25.5 8q-51 48 -54 94v211q-3 138 99.5 239t240.5 101q141 0 240.5 -99.5t99.5 -240.5 q0 -39 -14 -76t-39 -53l-524 -377q-33 -23 -33 -80q0 -110 80 -190t190 -80t191 80.5t80 189.5v211q0 18 -27 41q-11 9 -12 23.5t8 25.5t23 12t26 -8q51 -48 51 -94v-211q4 -138 -99 -239t-241 -101q-140 0 -240 100t-100 240z" />
<glyph unicode="1" horiz-adv-x="389" d="M63 1079q0 13 10.5 24t24.5 11q49 0 84 34.5t35 82.5q0 15 10 25t25 10q14 0 24.5 -10t10.5 -25v-1196q0 -13 -10.5 -24t-24.5 -11q-15 0 -25 10.5t-10 24.5v1050q-50 -41 -119 -41q-14 0 -24.5 10t-10.5 25z" />
<glyph unicode="2" horiz-adv-x="860" d="M64.5 215q7.5 56 48.5 94l467 414q92 80 92 205q0 110 -79.5 189t-191.5 79t-190 -78q-15 -16 -37 -7.5t-22 32.5q0 14 10 24q99 99 239 99q141 0 240.5 -99t99.5 -239q0 -74 -29.5 -141.5t-84.5 -114.5l-465 -410q-25 -25 -29 -59.5t8.5 -64.5t41 -50t63.5 -18h370 q47 0 80 31t33 83q0 14 10.5 24.5t24.5 10.5t24.5 -10.5t10.5 -24.5q0 -78 -52 -128.5t-131 -55.5h-370q-55 -4 -101 29.5t-67 81.5t-13.5 104z" />
<glyph unicode="3" horiz-adv-x="819" d="M102 1145.5q0 14.5 11 25.5q95 95 231 95h139q78 0 133.5 -55t55.5 -132v-139q0 -136 -92 -231q-36 -36 -68 -54q95 -39 154 -125t59 -190q0 -140 -100.5 -240t-239.5 -100h-29q-144 0 -239 100q-11 9 -11 24.5t11 25.5q9 9 24 9t25 -9q80 -80 190 -80h29q111 0 190.5 79 t79.5 191t-79.5 191t-190.5 79h-35q-14 0 -24.5 11t-10.5 24q0 15 10.5 26t24.5 11q106 0 179 74.5t73 183.5v139q0 49 -34.5 83t-84.5 34h-139q-105 0 -182 -74q-10 -10 -24 -10t-25 10q-11 9 -11 23.5z" />
<glyph unicode="4" horiz-adv-x="845" d="M64.5 756.5q-9.5 42.5 4 87t48.5 76.5l303 290q42 40 98.5 50t105.5 -7.5t83 -64t34 -109.5v-1044q0 -14 -10.5 -24.5t-23.5 -10.5q-15 0 -25 10.5t-10 24.5v1044q0 37 -21.5 65.5t-52 40.5t-66.5 6.5t-63 -30.5l-303 -291q-27 -24 -32.5 -60t7 -67.5t41.5 -53t66 -19.5 h196q75 0 131 -56q11 -10 11 -24t-11 -25q-9 -11 -24 -11t-25 11q-30 35 -82 35h-196q-47 -2 -87.5 19.5t-63.5 58t-32.5 79z" />
<glyph unicode="5" d="M102 950v129q0 75 54.5 129.5t132.5 57.5h459q13 0 23.5 -10.5t10.5 -24.5t-10.5 -24.5t-23.5 -10.5h-459q-46 0 -81 -34t-36 -83v-129q0 -112 79 -191t191 -79q140 0 240 -100t100 -240q0 -141 -100 -240.5t-240 -99.5q-144 0 -239 100q-11 9 -11 24.5t11 25.5q9 9 24 9 t25 -9q80 -80 190 -80q113 0 192 79t79 191t-79 191t-192 79q-141 0 -240.5 99.5t-99.5 240.5z" />
<glyph unicode="6" d="M102 340v96q0 50 54 94q11 10 25.5 9t23.5 -13q9 -11 8 -24.5t-12 -24.5q-29 -25 -29 -41v-96q-3 -108 79.5 -189t190.5 -81q112 0 191.5 79.5t79.5 190.5q0 112 -79 191t-192 79h-151q-78 0 -133.5 55.5t-55.5 133.5v127q0 141 100 240.5t240 99.5q138 0 242 -99 q9 -11 9 -25.5t-9 -23.5q-10 -10 -25 -10t-26 10q-78 78 -191 78q-112 0 -191 -79t-79 -191v-127q0 -49 35 -84t84 -35h151q141 0 240.5 -99.5t99.5 -240.5q0 -140 -99.5 -240t-240.5 -100q-136 0 -239.5 101.5t-100.5 238.5z" />
<glyph unicode="7" horiz-adv-x="798" d="M61 1145.5q0 14.5 9 25.5q95 95 231 95h252q64 1 115 -40.5t65.5 -100.5t-10.5 -124l-444 -981q-6 -13 -20 -17.5t-26 1.5q-13 4 -18.5 18.5t0.5 26.5l444 981q16 40 7 77.5t-41 63.5t-72 25h-252q-105 0 -182 -74q-9 -10 -24 -10t-25 10q-9 9 -9 23.5z" />
<glyph unicode="8" d="M102 340v131q0 50 54 94q11 10 25.5 9t23.5 -13q9 -11 8 -24.5t-12 -24.5q-29 -23 -29 -41v-131q-3 -108 79.5 -189t190.5 -81q112 0 191.5 79.5t79.5 190.5q0 109 -78.5 183.5t-192.5 74.5q-142 0 -241 95.5t-99 232.5q0 141 99.5 240.5t240.5 99.5q138 0 241 -101 t99 -239v-131q0 -46 -53 -95q-11 -9 -25.5 -7.5t-23.5 12.5t-8 25.5t12 23.5q29 23 29 41v131q3 109 -79 189.5t-192 80.5q-112 0 -191 -79t-79 -191q0 -108 78 -183t192 -75q143 0 241.5 -95t98.5 -233q0 -140 -100 -240t-240 -100q-137 0 -240.5 102t-99.5 238z" />
<glyph unicode="9" d="M102 926q0 141 99 240.5t239 99.5q139 0 241.5 -100.5t98.5 -239.5v-97q0 -46 -51 -94q-12 -9 -26 -8t-23 12q-9 10 -8.5 25t12.5 24q27 23 27 41v97q4 111 -77.5 190.5t-193.5 79.5q-111 0 -189.5 -79t-78.5 -191q0 -111 79 -191t189 -80h154q76 0 131 -54.5t55 -131.5 v-129q0 -140 -99.5 -240t-240.5 -100q-139 0 -239 100q-11 10 -11 25t11 25t25.5 10t23.5 -10q80 -80 190 -80q112 0 191.5 79.5t79.5 190.5v129q0 49 -33.5 83t-83.5 34h-154q-139 0 -238.5 100t-99.5 240z" />
<glyph unicode=":" horiz-adv-x="274" d="M102 37v84q0 14 10 24.5t25 10.5q13 0 24 -11t11 -24v-84q0 -15 -10.5 -25t-24.5 -10q-15 0 -25 10t-10 25zM102 907v84q0 14 10 24.5t25 10.5q13 0 24 -11t11 -24v-84q0 -15 -10.5 -25t-24.5 -10q-15 0 -25 10t-10 25z" />
<glyph unicode=";" horiz-adv-x="272" d="M-16 -82q0 14 9.5 24.5t24.5 10.5h9q32 3 53.5 27.5t21.5 56.5v84q0 14 10 24.5t25 10.5q13 0 24 -11t11 -24v-86q-2 -59 -41.5 -102.5t-97.5 -49.5h-15q-15 0 -24.5 10.5t-9.5 24.5zM102 907v84q0 14 10 24.5t25 10.5q13 0 24 -11t11 -24v-84q0 -15 -10.5 -25t-24.5 -10 q-15 0 -25 10t-10 25z" />
<glyph unicode="&#x3c;" horiz-adv-x="1134" d="M172 512q0 19 16 29l783 477q12 8 27 5t22 -15t3.5 -27t-15.5 -23l-684 -417q-19 -11 -19 -29q0 -20 19 -31l684 -415q12 -8 15.5 -23t-3.5 -27t-22 -15t-27 5l-783 477q-16 12 -16 29z" />
<glyph unicode="=" horiz-adv-x="1134" d="M102 401q0 13 11 24t24 11h860q13 0 24 -11t11 -24q0 -15 -10.5 -24.5t-24.5 -9.5h-860q-14 0 -24.5 9.5t-10.5 24.5zM102 762q0 14 11 24.5t24 10.5h860q13 0 24 -10.5t11 -24.5q0 -15 -10.5 -25t-24.5 -10h-860q-14 0 -24.5 10t-10.5 25z" />
<glyph unicode="&#x3e;" horiz-adv-x="1134" d="M179 43q4 15 16 23l684 415q18 11 18 31q0 18 -18 29l-684 417q-12 8 -16 23t3 27t22 15t27 -5l783 -477q16 -10 16 -29q0 -17 -16 -29l-783 -477q-12 -8 -27 -5t-22 15t-3 27z" />
<glyph unicode="?" horiz-adv-x="614" d="M0 1143q0 14 10 24q99 99 240 99t240.5 -99t99.5 -239q0 -73 -30.5 -141t-84.5 -115l-151 -133q-39 -36 -39 -88v-175q0 -15 -10.5 -24.5t-24.5 -9.5t-24.5 9.5t-10.5 24.5v175q0 84 61 139l152 133q92 80 92 205q0 111 -79 189.5t-191 78.5q-113 0 -191 -78 q-15 -16 -37 -7.5t-22 32.5zM215 35v84q0 15 10.5 25t24.5 10t24.5 -10t10.5 -25v-84q0 -13 -10.5 -24t-24.5 -11t-24.5 11t-10.5 24z" />
<glyph unicode="@" horiz-adv-x="1536" d="M41 358v187q0 117 36.5 226.5t103 198t154.5 155t198 103t227 36.5q116 0 226 -36.5t198.5 -103t155 -155t103 -198.5t36.5 -226v-328q0 -103 -73.5 -176.5t-176.5 -73.5q-74 0 -134.5 39t-90.5 103q-42 -66 -110 -105t-146 -39q-94 0 -170 53t-110 139t-13 177 q24 116 129 184l272 174q55 39 55 105q0 51 -36 87t-87 36q-53 0 -88 -35q-10 -11 -25 -11t-24 11q-11 9 -11 24t11 25q55 55 137 55q80 0 136.5 -56.5t56.5 -135.5q0 -49 -23 -92.5t-63 -69.5l-274 -174q-81 -54 -99 -144q-22 -92 29 -173t145 -103q92 -22 173.5 29 t103.5 145q4 16 4 53v193q0 11 -4.5 18t-22.5 25q-11 9 -12 22.5t8 24.5q9 12 24 13.5t25 -7.5q52 -34 52 -94v-246q0 -74 53.5 -127t128.5 -53q73 0 126.5 53.5t53.5 126.5v328q0 176 -87 325.5t-236.5 236.5t-325.5 87t-325.5 -87t-236.5 -236.5t-87 -325.5v-187 q0 -175 87 -324t236.5 -236t325.5 -87h469q13 0 24 -10.5t11 -24.5q0 -15 -10.5 -24.5t-24.5 -9.5h-469q-146 0 -279.5 57t-229.5 152.5t-153 228t-57 278.5z" />
<glyph unicode="A" horiz-adv-x="1005" d="M104 43q0 2 55 235.5t127.5 539.5t82.5 349q7 37 40.5 69t84.5 32q52 0 85 -31.5t42 -69.5q76 -342 237 -1009q7 -38 39 -63t72 -25q14 0 24.5 -10t10.5 -25q0 -13 -11 -24t-24 -11q-64 0 -115 39.5t-66 101.5q-16 69 -120.5 516t-114.5 494q-16 47 -59 47 q-25 0 -40.5 -16.5t-17.5 -30.5q-71 -294 -153 -649q38 18 82 18h94q30 0 61 17q12 7 25.5 3t21.5 -16q7 -12 3.5 -25.5t-15.5 -21.5q-34 -23 -96 -26h-94q-40 0 -72 -25.5t-43 -63.5q-19 -82 -38.5 -166t-29.5 -125t-10 -42q-3 -15 -15.5 -22.5t-27.5 -4.5q-13 3 -21 15 q-5 9 -5 18q0 4 1 8z" />
<glyph unicode="B" horiz-adv-x="1015" d="M2 211q-1 6 -1 11q0 24 26 32q36 11 71 11q56 0 107 -29l205 -130q59 -36 137 -36h26q113 0 192 79t79 191t-79 191t-192 79h-32q-13 0 -24 11t-11 24q0 15 10.5 25t24.5 10q106 0 179 75.5t73 184.5q0 106 -76 181t-182 75l-146 2q-45 0 -79.5 -35t-33.5 -80v-694 q0 -15 -10 -25t-24 -10t-24.5 10t-10.5 25v694v7q0 68 53.5 122t121.5 54h7h146q135 0 231 -95.5t96 -230.5q0 -136 -92 -231q-36 -36 -68 -54q95 -39 153 -124.5t58 -190.5q0 -141 -99.5 -240.5t-240.5 -99.5h-26q-94 0 -174 47l-203 127q-35 21 -74 21q-23 0 -49 -7 q-13 -4 -26.5 2.5t-18.5 20.5z" />
<glyph unicode="C" horiz-adv-x="778" d="M102 340v588q0 140 99.5 239t240.5 99t240 -99q10 -11 10 -25t-10 -24q-9 -10 -23.5 -10t-25.5 10q-77 80 -191 80q-112 0 -191 -79.5t-79 -190.5v-588q0 -112 79 -191t191 -79q117 0 191 77q11 11 25.5 11t23.5 -11q10 -9 10 -24t-10 -25q-98 -98 -240 -98 q-141 0 -240.5 99.5t-99.5 240.5z" />
<glyph unicode="D" horiz-adv-x="999" d="M2 201q-1 4 -1 8q-1 11 5 19q8 12 21 16q31 9 64 9q13 0 27 -1q48 -5 87 -27q145 -92 186 -119q55 -34 123 -34q54 0 104 24q96 47 152.5 134.5t56.5 189.5v416q0 150 -113 257t-272 107h-49q-47 0 -80.5 -34.5t-33.5 -82.5v-704q0 -13 -10.5 -24t-24.5 -11 q-15 0 -25 10.5t-10 24.5v704q0 77 54 131t130 54h49q188 0 321.5 -127t133.5 -305v-416q0 -121 -67 -225t-181 -160q-68 -33 -135 -33q-86 0 -160 47l-184 115q-37 21 -76 21q-23 0 -47 -7q-13 -4 -26.5 2.5t-18.5 20.5z" />
<glyph unicode="E" horiz-adv-x="798" d="M102 182v901v7q0 68 54 122t122 54h7h377q14 0 24 -10t10 -25q0 -14 -10.5 -24.5t-23.5 -10.5h-377q-46 0 -79.5 -33.5t-33.5 -79.5v-456q53 43 117 43h3h3h3h3h3h3h3h3h3h3h3h3h3h3h3h3h3h3h3h3h3h3h3h3h3h3h3h3h3h3h3h3h3h3h3h3h3h3h3h3h3h3h3h3h3h3h3h3h3h3h2h3h3h3h3 h3h3h3h3h3h3h3h3h2h10q48 0 80 32q11 10 26 10t26 -10q9 -10 8 -25t-11 -24q-53 -53 -129 -53h-200q-48 0 -82.5 -35t-34.5 -84v-299q0 -45 34 -79q33 -33 76 -33h3h377q13 0 23.5 -10.5t10.5 -24.5t-10.5 -24.5t-23.5 -10.5h-377h-7q-68 0 -122 53.5t-54 121.5v7z" />
<glyph unicode="F" horiz-adv-x="778" d="M102 35v1046q0 76 53.5 130.5t129.5 54.5h377q15 0 24.5 -10.5t9.5 -24.5q0 -15 -9.5 -25t-24.5 -10h-377q-46 0 -79.5 -33.5t-33.5 -79.5v-456q50 41 117 41h3h3h3h3h3h3h3h3h3h3h3h3h3h3h3h3h3h3h3h3h3h3h3h3h3h3h3h3h3h3h3h3h3h3h3h3h3h3h3h3h3h3h3h3h3h3h3h3h3h3h2h3 h3h3h3h3h3h3h3h3h3h3h3h2h10q48 0 82 34q9 9 24.5 8.5t25.5 -10.5q9 -9 8 -24t-11 -25q-53 -53 -129 -53h-200q-47 0 -82 -35t-35 -82v-446q0 -15 -10.5 -25t-24.5 -10t-24.5 10t-10.5 25z" />
<glyph unicode="G" horiz-adv-x="886" d="M102 340v588q0 140 99.5 239t240.5 99t240 -99q10 -11 10 -25t-10 -24q-9 -10 -23.5 -10t-25.5 10q-77 80 -191 80q-112 0 -191 -79.5t-79 -190.5v-588q0 -112 79.5 -191t190.5 -79q34 0 62 17t43 46l153 297q15 30 15 53q0 47 -34.5 81t-80.5 34h-51q-76 0 -129 53 q-10 10 -10.5 25t8.5 24q10 10 25 10.5t24 -8.5q34 -34 82 -34h51q75 0 129.5 -54.5t54.5 -130.5q0 -44 -22 -86l-154 -295q-23 -47 -67.5 -74.5t-98.5 -27.5q-140 0 -240 99.5t-100 240.5z" />
<glyph unicode="H" horiz-adv-x="1105" d="M61 1231q0 14 10 24.5t25 10.5h17q70 -7 118 -59.5t50 -123.5v-483q68 68 163 68h213q68 0 116 48.5t48 117.5v397q0 13 10.5 24t24.5 11t24.5 -11t10.5 -24v-1049q0 -44 29.5 -75.5t72.5 -36.5h13q13 0 23.5 -10.5t10.5 -24.5q0 -15 -10 -25t-24 -10h-19 q-71 6 -118.5 58t-47.5 124v484q-71 -68 -164 -68h-213q-67 0 -115 -48t-48 -116v-399q0 -15 -10.5 -25t-24.5 -10q-15 0 -25 10t-10 25v1048q-2 43 -31.5 76t-73.5 37h-10q-15 0 -25 10.5t-10 24.5z" />
<glyph unicode="I" horiz-adv-x="395" d="M102 152v1079q0 13 11 24t24 11q15 0 25 -10.5t10 -24.5v-1079q2 -32 24 -55.5t54 -26.5h8q14 0 24.5 -11t10.5 -24q0 -15 -10.5 -25t-24.5 -10h-16q-59 6 -99 49t-41 103z" />
<glyph unicode="J" horiz-adv-x="755" d="M64 121.5q0 14.5 10 25.5q9 9 23.5 9t25.5 -9q79 -79 190 -79q112 0 191.5 79.5t79.5 192.5v784q0 27 -18.5 48t-45.5 24h-96q-78 0 -131 53q-11 11 -11 25.5t11 23.5q11 10 25 10t24 -10q37 -32 82 -32h100q55 -4 92 -45t37 -95v-786q0 -141 -99.5 -240.5t-240.5 -99.5 q-145 0 -239 98q-10 9 -10 23.5z" />
<glyph unicode="K" horiz-adv-x="1085" d="M61 1231q0 14 10 24.5t25 10.5q75 0 130 -54.5t55 -130.5v-481l530 551q35 30 35 80q0 14 10 24.5t25 10.5q13 0 23.5 -10.5t10.5 -24.5q0 -76 -55 -131l-418 -432h2q67 0 123.5 -35.5t85.5 -95.5l224 -408q32 -59 102 -59q13 0 24 -11t11 -24q0 -15 -10.5 -25t-24.5 -10 q-51 0 -95 26t-67 70l-225 410q-22 42 -61.5 67t-86.5 25q-68 0 -115.5 -48.5t-47.5 -117.5v-397q0 -15 -10.5 -25t-24.5 -10q-15 0 -25 10t-10 25v1046q0 47 -34 81t-81 34q-15 0 -25 10t-10 25z" />
<glyph unicode="L" horiz-adv-x="860" d="M164 182v1049q0 14 10 24.5t25 10.5q13 0 23.5 -10.5t10.5 -24.5v-1049q0 -47 33 -79.5t80 -32.5h377q13 0 24 -11t11 -24q0 -15 -10.5 -25t-24.5 -10h-377q-75 0 -128.5 53.5t-53.5 128.5z" />
<glyph unicode="M" horiz-adv-x="1413" d="M102 35v1102q0 54 38.5 91.5t90.5 37.5q40 0 74.5 -23.5t48.5 -64.5q4 -12 293 -1018q289 1006 293 1018q14 41 48.5 64.5t74.5 23.5q56 -3 91.5 -40t37.5 -89l-2 -955q0 -44 29.5 -75.5t72.5 -36.5h13q13 0 23.5 -10.5t10.5 -24.5q0 -15 -10 -25t-24 -10h-19 q-71 6 -118.5 58t-47.5 124v955q0 26 -16 42.5t-41 16.5q-19 0 -35 -11t-20 -28q-3 -7 -326 -1132q-3 -11 -13 -18t-22 -7t-22 7t-13 18q-324 1130 -325 1132q-4 17 -20.5 28t-35.5 11q-25 0 -42 -17t-17 -42v-1102q0 -15 -10 -25t-25 -10q-14 0 -24.5 10t-10.5 25z" />
<glyph unicode="N" horiz-adv-x="1024" d="M61 35q0 14 10 24.5t25 10.5h10q44 4 73.5 36t31.5 76v955q0 54 38.5 91.5t90.5 37.5q41 0 75.5 -23t47.5 -65l270 -1069q4 -17 20 -28t35 -11q25 0 42 17.5t16 43.5v1100q0 14 10 24.5t25 10.5q13 0 23.5 -10.5t10.5 -24.5q1 -829 3 -1102q0 -54 -39 -91.5t-91 -37.5 q-40 0 -74.5 23.5t-47.5 64.5l-271 1069q-4 17 -20 28t-35 11q-24 0 -41.5 -16.5t-17.5 -42.5v-955q-1 -72 -49 -124t-119 -58h-17q-15 0 -25 10t-10 25z" />
<glyph unicode="O" horiz-adv-x="1003" d="M2 1055q3 13 16 20t27 2q21 -6 45 -6q38 0 78 19l203 129q80 47 174 47q139 0 239.5 -100t100.5 -240v-586q0 -141 -100 -240.5t-240 -99.5q-141 0 -240.5 99.5t-99.5 240.5v537q0 13 10.5 23.5t24.5 10.5t24 -10.5t10 -23.5v-537q0 -112 79 -191t192 -79t191.5 79 t78.5 191v586q0 112 -78.5 191t-191.5 79q-73 0 -137 -39l-205 -127q-56 -29 -113 -29q-35 0 -65 9q-15 4 -21 18q-4 8 -4 17q0 5 2 10z" />
<glyph unicode="P" horiz-adv-x="839" d="M102 35v211q0 107 53.5 201.5t147.5 154.5q5 5 354 223q56 37 56 101v4q-1 110 -81 188t-190 78h-157q-46 0 -79.5 -34.5t-33.5 -80.5v-262q0 -23 18 -41l27 -22q11 -9 12 -23.5t-8 -25.5t-23.5 -12.5t-25.5 7.5l-29 25q-41 38 -41 92v262q0 76 53.5 130.5t129.5 54.5 h157q141 0 240.5 -100t99.5 -240v-4q-3 -102 -88 -156q-349 -218 -354 -223q-78 -50 -123 -129t-45 -168v-211q0 -15 -10 -25t-25 -10q-14 0 -24.5 10t-10.5 25z" />
<glyph unicode="Q" horiz-adv-x="968" d="M102 340v586q0 140 99.5 240t240.5 100q140 0 240 -100t100 -240v-586q0 -114 -67 -203l35 -35q37 -32 81 -32q13 0 24 -11t11 -24t-11 -24t-24 -11q-78 0 -131 53q-42 44 -260 262q-9 9 -9.5 24t9.5 26q25 21 49 0q1 -1 12 -12.5t29 -29.5l40 -40t48 -48.5t48 -48.5 q47 68 47 154v586q0 112 -79 191t-192 79q-112 0 -191 -79t-79 -191v-586q0 -112 79 -191t191 -79q29 0 43 2t26.5 -9t12.5 -26q0 -30 -30 -35q-23 -2 -52 -2q-141 0 -240.5 99.5t-99.5 240.5z" />
<glyph unicode="R" horiz-adv-x="1064" d="M162 35v211q0 108 52.5 202t145.5 154q1 1 357 223q55 36 55 101v4q-1 110 -80.5 188t-189.5 78h-158q-48 0 -80.5 -34t-32.5 -81v-262q0 -19 17 -39l26 -22q12 -9 14 -25t-7 -26q-22 -25 -52 -2l-28 24q-39 31 -39 90v262q0 76 53 130.5t129 54.5h158q140 0 240 -100 t100 -240v-4q-1 -47 -24.5 -88.5t-63.5 -67.5q-15 -9 -84 -52.5t-111 -68.5q70 -34 109 -104l188 -414q13 -26 40 -41.5t58 -15.5q15 0 25 -10.5t10 -24.5q0 -15 -10 -25t-25 -10q-51 0 -93.5 25.5t-67.5 70.5l-189 414q-17 35 -50 58t-71 28q-21 -13 -42.5 -26.5t-32 -19.5 t-11.5 -7q-78 -49 -122 -128.5t-44 -168.5v-211q0 -15 -10 -25t-24 -10q-15 0 -25 10t-10 25z" />
<glyph unicode="S" horiz-adv-x="927" d="M102 340q0 14 11 24.5t24 10.5t24 -10.5t11 -24.5q0 -112 79 -191t191 -79h43q113 0 192 79t79 191q0 69 -33.5 129.5t-91.5 97.5q-11 11 -385 193q-41 21 -71 65.5t-30 100.5q0 140 100.5 240t239.5 100q144 0 240 -101q11 -11 11 -25t-11 -24q-9 -9 -23.5 -9.5 t-25.5 9.5q-77 80 -191 80q-113 0 -191.5 -79t-78.5 -191q0 -35 18 -63.5t43 -41.5q33 -16 122.5 -56t154.5 -72.5t115 -65.5q74 -47 115.5 -123t41.5 -164q0 -141 -99.5 -240.5t-240.5 -99.5h-43q-141 0 -240.5 99.5t-99.5 240.5z" />
<glyph unicode="T" horiz-adv-x="921" d="M61 1081v15q6 70 59 119t124 51h585q13 0 24 -11t11 -24q0 -14 -11 -24.5t-24 -10.5h-331v-1161q0 -13 -10.5 -24t-24.5 -11t-24.5 10t-10.5 25v1161h-184q-44 -2 -77 -31.5t-36 -72.5v-11q0 -13 -10.5 -23.5t-24.5 -10.5t-24.5 9.5t-10.5 24.5z" />
<glyph unicode="U" horiz-adv-x="993" d="M61 1231q0 13 10.5 24t24.5 11h17q69 -6 117.5 -59t50.5 -124v-743q0 -112 78.5 -191t191.5 -79t191.5 79t78.5 191v891q0 13 10.5 24t24.5 11t24.5 -11t10.5 -24v-891q0 -141 -100 -240.5t-240 -99.5q-141 0 -240.5 99.5t-99.5 240.5v743q0 43 -30.5 76t-74.5 37h-10 q-14 0 -24.5 10t-10.5 25z" />
<glyph unicode="V" horiz-adv-x="1003" d="M0 1231q0 13 10.5 24t24.5 11q64 0 114 -40t64 -102q174 -719 238 -1009q2 -14 17 -29.5t42 -15.5t42 15.5t17 29.5q16 70 126.5 544.5t135.5 579.5q3 14 15.5 21.5t25.5 3.5q14 -4 22 -16q6 -9 6 -18q0 -4 -1 -7q-17 -69 -133.5 -573t-128.5 -552q-9 -36 -42.5 -67 t-84.5 -31t-84.5 31t-42.5 67q-12 49 -117 497t-121 513q-9 38 -39.5 63t-70.5 25q-14 0 -24.5 11t-10.5 24z" />
<glyph unicode="W" horiz-adv-x="1429" d="M0 1231q0 13 11 24t24 11q64 0 114 -40t64 -102q174 -719 238 -1009q15 -45 59 -45q26 0 41.5 16t17.5 29q27 116 54.5 236.5t43 188t19.5 83.5q-29 124 -71 300t-44 185q-9 38 -39.5 63t-70.5 25q-14 0 -24.5 10t-10.5 25q0 13 11 24t24 11q64 0 114 -40t64 -102 q174 -719 238 -1009q15 -45 59 -45t59 45l262 1124q3 14 15.5 21.5t25.5 3.5q14 -4 22 -16q6 -9 6 -18q0 -4 -1 -7q-192 -825 -262 -1125q-9 -36 -43 -67t-84 -31q-51 0 -84.5 31t-42.5 67q-3 17 -15 68.5t-33.5 141.5t-37.5 161q-6 -23 -86 -371q-9 -36 -43 -67t-84 -31 q-51 0 -84.5 31t-42.5 67q-14 63 -110 470.5t-128 539.5q-9 38 -39.5 63t-70.5 25q-14 0 -24.5 10t-10.5 25z" />
<glyph unicode="X" horiz-adv-x="1081" d="M0 1231q0 13 11 24t24 11q94 0 151 -80q1 -2 42.5 -68.5t117 -188.5t143.5 -231l342 551q7 12 21.5 15.5t26.5 -4.5t15.5 -22t-3.5 -26l-361 -579l320 -514q36 -49 94 -49q14 0 24.5 -11t10.5 -24q0 -15 -10.5 -25t-24.5 -10q-44 0 -84.5 20.5t-66.5 57.5q0 4 -304 487 l-342 -549q-7 -12 -21 -16q-4 -1 -9 -1q-9 0 -17 5q-12 8 -15.5 22.5t3.5 26.5l361 580q-317 511 -320 514q-32 49 -94 49q-14 0 -24.5 10t-10.5 25z" />
<glyph unicode="Y" horiz-adv-x="940" d="M6 1231q0 13 11 24t24 11q48 0 89.5 -23.5t66.5 -64.5l288 -463q20 -32 39 -43l342 577q7 12 22 15.5t27 -4.5q12 -7 15 -22q2 -5 2 -10q0 -8 -4 -16l-353 -589v-588q0 -15 -9.5 -25t-24.5 -10q-14 0 -24.5 10t-10.5 25v569q-45 16 -80 74l-289 463q-31 55 -96 55 q-15 0 -25 10t-10 25z" />
<glyph unicode="Z" horiz-adv-x="942" d="M104 182v9q0 41 23 81l578 832q20 26 2.5 59t-52.5 33h-460q-14 0 -24.5 10t-10.5 25q0 13 11 24t24 11h460q47 0 83.5 -33t43.5 -77q1 -9 1 -19q0 -36 -21 -72l-576 -827q-12 -24 -12 -56q0 -46 33.5 -79t79.5 -33h370q43 0 76 29t37 73v10q0 15 10.5 25t24.5 10 t24.5 -10t10.5 -25v-16q-8 -71 -60.5 -118.5t-122.5 -47.5h-370q-75 0 -129 53.5t-54 128.5z" />
<glyph unicode="[" horiz-adv-x="307" d="M0 -137v1214q0 78 55 133.5t133 55.5q14 0 24.5 -11t10.5 -24q0 -15 -10.5 -25t-24.5 -10q-49 0 -83.5 -34.5t-34.5 -84.5v-1214q0 -48 34.5 -82.5t83.5 -34.5q14 0 24.5 -11t10.5 -24t-10.5 -24t-24.5 -11q-78 0 -133 55t-55 132z" />
<glyph unicode="\" horiz-adv-x="565" d="M3 1211.5q5 13.5 17 19.5q13 6 27.5 1t20.5 -18l493 -1165q7 -14 2.5 -27.5t-16.5 -19.5q-14 -6 -27.5 -1t-19.5 17l-496 1168q-6 12 -1 25.5z" />
<glyph unicode="]" horiz-adv-x="307" d="M0 -289q0 13 11 24t24 11q49 0 84 34.5t35 82.5v1214q0 49 -35 84t-84 35q-14 0 -24.5 10t-10.5 25q0 13 11 24t24 11q78 0 133 -55.5t55 -133.5v-1214q0 -77 -55 -132t-133 -55q-13 0 -24 11t-11 24z" />
<glyph unicode="^" horiz-adv-x="772" d="M1 651q-3 15 5 27l350 571q10 17 29 17q12 0 29 -17l352 -571q7 -12 3.5 -26.5t-15.5 -22.5q-12 -7 -25.5 -3.5t-21.5 15.5l-291 473q-11 19 -31 19q-18 0 -29 -19l-290 -473q-8 -12 -23 -15.5t-27 3.5t-15 22z" />
<glyph unicode="_" horiz-adv-x="1134" d="M102 35q0 13 11 24t24 11h860q13 0 24 -11t11 -24q0 -15 -10.5 -25t-24.5 -10h-860q-14 0 -24.5 10t-10.5 25z" />
<glyph unicode="a" horiz-adv-x="782" d="M63 286q-1 10 -1 19q0 67 31 130q35 72 106 118l272 174q55 36 55 102q0 52 -36 88.5t-87 36.5q-55 0 -88 -36q-11 -9 -25.5 -9t-23.5 9q-10 10 -10 25t10 24q57 57 137 57t136.5 -57t56.5 -138q0 -47 -23 -90t-63 -71l-274 -174q-77 -51 -99 -143q-7 -28 -7 -54 q0 -62 36 -119q52 -84 145 -102q28 -7 54 -7q61 0 119 36q82 51 104 145q6 24 6 51v195q0 12 -12 28q-2 1 -8 6t-9 7q-11 9 -12 23.5t8 25.5t23.5 12t25.5 -8l19 -17q32 -32 35 -77v-344q0 -31 21.5 -55t53.5 -27h9q13 0 23.5 -10.5t10.5 -24.5t-10.5 -24.5t-23.5 -10.5h-15 q-49 4 -86 36.5t-49 78.5q-41 -54 -104 -84.5t-132 -30.5q-77 0 -143.5 36t-109.5 105q-41 68 -46 145z" />
<glyph unicode="b" horiz-adv-x="890" d="M102 190q0 14 11 24.5t24 10.5q63 0 103 -24l163 -103q51 -28 107 -28q86 0 147.5 61.5t61.5 147.5v466q0 86 -61.5 147.5t-147.5 61.5t-147.5 -61.5t-61.5 -147.5v-421q0 -14 -10 -24.5t-25 -10.5q-14 0 -24.5 10.5t-10.5 24.5v788q0 32 -21.5 56.5t-53.5 27.5h-9 q-13 0 -23.5 10.5t-10.5 24.5q0 15 10 25t24 10h15q58 -6 98.5 -50.5t40.5 -103.5v-182q39 44 94 69t115 25q115 0 196.5 -81.5t81.5 -197.5v-466q0 -116 -81.5 -197.5t-196.5 -81.5q-74 0 -141 39l-162 100q-31 17 -66 17q-14 -2 -26.5 8.5t-12.5 25.5z" />
<glyph unicode="c" horiz-adv-x="675" d="M102 279v466q0 115 82 197t197 82t197 -82q10 -9 10 -23.5t-10 -25.5q-10 -9 -25 -9t-25 9q-61 61 -147 61t-147.5 -61.5t-61.5 -147.5v-466q0 -86 61.5 -147.5t147.5 -61.5t147 61q10 9 24.5 9t25.5 -9q10 -11 10 -25.5t-10 -23.5q-82 -82 -197 -82t-197 82t-82 197z " />
<glyph unicode="d" horiz-adv-x="890" d="M102 279v466q0 115 82 197t197 82q60 0 115 -25t94 -69v182q0 59 40.5 103.5t98.5 50.5h14q14 0 24.5 -10t10.5 -25q0 -13 -11 -24t-24 -11h-8q-32 -3 -54 -27.5t-22 -56.5v-788q0 -14 -10.5 -24.5t-23.5 -10.5q-15 0 -25 10.5t-10 24.5v421q0 86 -61.5 147.5 t-147.5 61.5t-147.5 -61.5t-61.5 -147.5v-466q0 -86 61.5 -147.5t147.5 -61.5q55 0 106 28l164 103q41 24 103 24q13 0 23.5 -10.5t10.5 -24.5q0 -15 -12 -25.5t-26 -8.5q-35 0 -66 -17l-162 -100q-67 -39 -141 -39q-115 0 -197 82t-82 197z" />
<glyph unicode="e" horiz-adv-x="737" d="M102 279q0 70 34.5 132.5t94.5 102.5q15 10 314 156q18 8 31.5 29t13.5 46q0 86 -61.5 147.5t-147.5 61.5t-147.5 -61.5t-61.5 -147.5v-47q0 -16 12 -28q9 -9 17 -13q11 -9 12 -23.5t-8 -25.5q-9 -12 -24 -13.5t-25 7.5q-2 2 -9.5 8t-9.5 8q-32 37 -35 78v49 q0 115 82 197t197 82t196.5 -81.5t81.5 -197.5q0 -43 -23 -81t-61 -58q-22 -11 -103 -48.5t-129 -61.5t-75 -41q-45 -30 -70.5 -76.5t-25.5 -99.5q0 -86 61.5 -147.5t147.5 -61.5t147 61q10 9 25.5 9t24.5 -9q10 -11 10 -25.5t-10 -23.5q-82 -82 -197 -82t-197 82t-82 197z " />
<glyph unicode="f" horiz-adv-x="622" d="M102 989q0 13 11 24t24 11h53v90q0 58 40.5 102t99.5 50h14h141q14 0 24.5 -10t10.5 -25q0 -13 -11 -24t-24 -11h-141h-8q-32 -3 -54 -27.5t-22 -56.5v-88h137q15 0 25 -10.5t10 -24.5t-10 -24.5t-25 -10.5h-137v-919q0 -13 -11 -24t-24 -11q-15 0 -25 10.5t-10 24.5v919 h-53q-13 0 -24 11t-11 24z" />
<glyph unicode="g" d="M102 569v176q0 115 82 197t197 82q74 0 141 -39l80 -51q17 37 51 61.5t76 28.5h14q13 0 24 -11t11 -24t-11 -24t-24 -11h-8q-32 -3 -54 -27.5t-22 -56.5v-387q0 -19 -8.5 -37t-17 -28t-27.5 -29q-11 -9 -25.5 -8t-23.5 12t-8 25.5t12 23.5q2 2 12 9.5t13.5 14.5t3.5 17 v377l-103 66q-51 28 -106 28q-87 0 -148 -61t-61 -148v-176q0 -52 41 -73q278 -179 283 -179q76 -49 118.5 -125.5t42.5 -164.5q0 -145 -106 -247t-258 -102q-14 0 -24.5 10t-10.5 25q0 13 11 24t24 11q123 0 209 81.5t86 197.5q0 70 -34 131.5t-95 99.5q-1 1 -56 35.5 t-126 79t-101 63.5q-74 46 -74 133z" />
<glyph unicode="h" horiz-adv-x="999" d="M102 1231q0 15 10 25t25 10h15q58 -6 97.5 -49.5t41.5 -102.5v-184q84 94 209 94q114 0 195 -82t81 -197l2 -593q0 -31 22 -55t54 -27h8q14 0 24.5 -11t10.5 -24t-10.5 -24t-24.5 -11h-16q-58 6 -97.5 49.5t-39.5 102.5l-2 593q0 86 -60.5 147.5t-146.5 61.5 q-87 0 -148 -61t-61 -148v-710q0 -13 -10.5 -24t-24.5 -11q-15 0 -25 10.5t-10 24.5v1079q0 32 -22 55.5t-54 26.5h-8q-15 0 -25 10.5t-10 24.5z" />
<glyph unicode="i" horiz-adv-x="352" d="M61 989q0 13 10.5 24t24.5 11h15q60 -6 99.5 -50t39.5 -104v-835q0 -14 -10 -24.5t-25 -10.5q-13 0 -24 11t-11 24v835q0 32 -22 56.5t-54 27.5h-8q-14 0 -24.5 11t-10.5 24zM180 1147v84q0 15 10.5 25t24.5 10q15 0 25 -10t10 -25v-84q0 -14 -10 -24.5t-25 -10.5 q-13 0 -24 11t-11 24z" />
<glyph unicode="j" horiz-adv-x="569" d="M39 -289q0 15 10 25t25 10h119h8q32 3 53.5 27.5t21.5 56.5v1040q2 60 42 104t98 50h16q14 0 24.5 -11t10.5 -24t-10.5 -24t-24.5 -11h-10q-31 -3 -52.5 -27.5t-23.5 -56.5v-1040q0 -60 -39.5 -105t-99.5 -49h-14h-119q-15 0 -25 10.5t-10 24.5zM276 1147v84q0 13 11 24 t24 11q15 0 25 -10.5t10 -24.5v-84q0 -14 -10 -24.5t-25 -10.5q-13 0 -24 11t-11 24z" />
<glyph unicode="k" d="M61 1231q0 13 10.5 24t24.5 11h17q58 -6 97.5 -49.5t41.5 -102.5v-610l393 426q25 25 25 59q0 13 11 24t24 11q15 0 24.5 -10.5t9.5 -24.5q0 -65 -43 -108l-311 -334q52 -3 95.5 -31.5t68.5 -75.5l158 -323q23 -47 77 -47q14 0 24.5 -11t10.5 -24t-10.5 -24t-24.5 -11 q-44 0 -82 23.5t-57 62.5l-160 324q-15 31 -45 49t-65 18q-52 0 -88 -39q-35 -35 -35 -86v-317q0 -13 -11 -24t-24 -11q-15 0 -25 10.5t-10 24.5v1079q-2 31 -23.5 55t-52.5 27h-10q-14 0 -24.5 11t-10.5 24z" />
<glyph unicode="l" horiz-adv-x="352" d="M61 1231q0 14 10 24.5t25 10.5h15q58 -6 97.5 -49.5t41.5 -102.5v-1079q0 -13 -11 -24t-24 -11q-15 0 -25 10.5t-10 24.5v1079q-2 31 -23 55t-53 27h-8q-15 0 -25 10.5t-10 24.5z" />
<glyph unicode="m" horiz-adv-x="1372" d="M61 987q0 15 10 25t25 10h15q77 -9 118 -76l64 39q67 39 141 39q69 0 129 -31.5t99 -85.5q38 54 99 85.5t128 31.5q115 0 196.5 -81.5t81.5 -197.5v-593q0 -31 22 -55t54 -27h8q13 0 24 -11t11 -24t-11 -24t-24 -11h-14q-60 6 -99.5 49.5t-39.5 102.5v593 q0 86 -61.5 147.5t-147.5 61.5q-62 0 -113.5 -32.5t-77.5 -87.5q15 -51 15 -89v-710q0 -13 -10.5 -24t-24.5 -11q-15 0 -25 10.5t-10 24.5v710q0 86 -61.5 147.5t-147.5 61.5q-55 0 -106 -28l-78 -49v-842q0 -13 -11 -24t-24 -11t-24 11t-11 24v835q0 32 -22 55.5t-54 26.5 h-8q-15 0 -25 10.5t-10 24.5z" />
<glyph unicode="n" horiz-adv-x="960" d="M61 989q0 13 10.5 24t24.5 11h17q41 -4 74.5 -28.5t50.5 -61.5l79 51q67 39 144 39q114 0 195 -82t81 -197v-593q2 -31 23.5 -55t52.5 -27h10q13 0 24 -11t11 -24t-11 -24t-24 -11h-16q-58 6 -97.5 49.5t-41.5 102.5v593q0 86 -60.5 147.5t-146.5 61.5q-59 0 -107 -28 l-102 -66v-825q0 -13 -11 -24t-24 -11q-15 0 -25 10.5t-10 24.5v835q-2 32 -23.5 56.5t-52.5 27.5h-10q-14 0 -24.5 11t-10.5 24z" />
<glyph unicode="o" horiz-adv-x="839" d="M2 850q5 14 17.5 21t25.5 3q16 -5 33 -6q29 0 61 17l162 100q62 39 141 39q115 0 197 -81t82 -195v-469q0 -115 -81.5 -197t-197.5 -82q-115 0 -195.5 81.5t-80.5 197.5v421q0 14 10 24.5t23 10.5q15 0 24.5 -10.5t9.5 -24.5v-421q0 -86 61.5 -147.5t147.5 -61.5 t147.5 61.5t61.5 147.5v469q0 86 -61 146t-148 60q-55 0 -106 -28l-162 -103q-41 -23 -90 -23q-27 0 -57 7q-13 5 -21 17q-5 9 -5 18q0 4 1 8z" />
<glyph unicode="p" horiz-adv-x="798" d="M61 989q0 13 10.5 24t24.5 11h15q43 -4 76.5 -28.5t48.5 -61.5l79 51h2q67 39 142 39q82 0 149.5 -43.5t102.5 -114.5q26 -60 26 -121v-176q0 -88 -73 -133q-30 -19 -101 -63.5t-126 -79t-56 -35.5q-61 -38 -96 -100t-35 -131v-316q0 -14 -10 -24.5t-25 -10.5 q-13 0 -24 11t-11 24v316q0 87 43.5 163.5t120.5 126.5q5 0 283 179q41 21 41 73v176q0 86 -61.5 147.5t-147.5 61.5q-56 0 -107 -28l-102 -66v-377q0 -6 1 -10.5t5.5 -9.5t6 -7t8.5 -7.5t8 -6.5q11 -9 12 -23.5t-8 -25.5t-24 -12t-26 8l-7.5 7.5l-8.5 8.5l-7.5 7.5t-7 8 t-6 8.5t-6 9.5t-4 9.5t-3.5 11t-2 11t-1 13v387q0 32 -22 56.5t-54 27.5h-8q-14 0 -24.5 11t-10.5 24z" />
<glyph unicode="q" horiz-adv-x="761" d="M102 569v176q0 59 27 121q35 71 102.5 114.5t149.5 43.5q74 0 141 -39h2l66 -43v47q0 14 10 24.5t25 10.5q13 0 23.5 -10.5t10.5 -24.5v-506q0 -20 -8.5 -38t-16.5 -27t-28 -29q-11 -9 -25.5 -8t-23.5 12t-8 25.5t12 23.5q1 1 5 4t6 5t5.5 5t5 5.5t3.5 6t3 7.5t1 8v377 l-103 66q-51 28 -106 28q-86 0 -147.5 -61.5t-61.5 -147.5v-176q0 -52 41 -73q278 -179 283 -179q77 -50 120 -126.5t43 -163.5v-316q0 -14 -10.5 -24.5t-23.5 -10.5q-15 0 -25 10.5t-10 24.5v316q0 69 -35 131t-96 100q-1 1 -56 35.5t-126 79t-101 63.5q-74 46 -74 133z " />
<glyph unicode="r" horiz-adv-x="692" d="M61 989q0 13 10.5 24t24.5 11h15q43 -4 76.5 -28.5t48.5 -61.5l81 51q67 39 142 39q51 0 108 -23q13 -5 19 -18q3 -6 3 -13t-3 -14q-6 -13 -19.5 -18.5t-25.5 0.5q-43 16 -82 16q-56 0 -107 -28l-102 -66v-825q0 -14 -10 -24.5t-25 -10.5q-13 0 -24 11t-11 24v835 q0 32 -22 56.5t-54 27.5h-8q-14 0 -24.5 11t-10.5 24z" />
<glyph unicode="s" horiz-adv-x="796" d="M102 279q0 13 10.5 23.5t24.5 10.5q15 0 25 -10t10 -24q0 -86 61.5 -147.5t147.5 -61.5h35q86 0 147.5 61.5t61.5 147.5q0 112 -97 176q-265 133 -307 153q-37 19 -60.5 57t-23.5 80q0 115 81.5 197t197.5 82q114 0 196 -82q10 -9 10 -23.5t-10 -25.5q-9 -11 -23.5 -11 t-25.5 11q-61 61 -147 61t-147.5 -61.5t-61.5 -147.5q0 -25 13 -45t32 -30q58 -31 167.5 -84t145.5 -72q129 -85 129 -235q0 -116 -81.5 -197.5t-196.5 -81.5h-35q-115 0 -197 82t-82 197z" />
<glyph unicode="t" horiz-adv-x="579" d="M61 989q0 14 10 24.5t25 10.5h51v207q0 15 10.5 25t24.5 10t24.5 -10t10.5 -25v-207h139q14 0 24.5 -11t10.5 -24t-10.5 -24t-24.5 -11h-139v-802q0 -31 22 -55t54 -27h149q15 0 25 -10.5t10 -24.5t-10 -24.5t-25 -10.5h-155q-59 6 -99.5 50t-40.5 102v802h-51 q-15 0 -25 10.5t-10 24.5z" />
<glyph unicode="u" horiz-adv-x="958" d="M61 989q0 13 10.5 24t24.5 11q64 0 109 -44.5t45 -107.5v-593q0 -86 61.5 -147.5t147.5 -61.5q55 0 106 28l103 66v825q0 14 10.5 24.5t23.5 10.5q14 0 24.5 -11t10.5 -24v-837q0 -31 22 -55t54 -27h8q15 0 25 -10.5t10 -24.5t-10 -24.5t-25 -10.5h-14q-41 4 -74.5 28.5 t-50.5 61.5l-82 -51q-64 -39 -141 -39q-115 0 -197 82t-82 197v591q0 34 -24 60q-24 25 -57 24h-3q-14 0 -24.5 11t-10.5 24z" />
<glyph unicode="v" horiz-adv-x="835" d="M0 989q0 13 11 24t24 11q54 0 95.5 -33t53.5 -86q23 -91 121 -506q11 -46 36 -152t34 -147q10 -30 39 -30q18 0 28.5 11.5t10.5 18.5l211 897q3 14 15.5 21.5t27.5 3.5q13 -3 20 -15q5 -8 5 -18q0 -4 -1 -8l-211 -897q-7 -30 -35 -57t-71 -27t-71.5 27t-35.5 57l-69 299 q-83 357 -121 506q-6 29 -29 47t-53 18q-13 0 -24 11t-11 24z" />
<glyph unicode="w" horiz-adv-x="1175" d="M0 989q0 13 11 24t24 11q54 0 95.5 -33t53.5 -86q13 -51 32.5 -133.5t45 -194t41.5 -178.5q17 -68 42.5 -174.5t29.5 -124.5q0 -7 10.5 -18.5t28.5 -11.5q29 0 39 30l94 404q-61 270 -90 385q-6 29 -29 47t-53 18q-13 0 -24 11t-11 24t11 24t24 11q54 0 95.5 -33 t53.5 -86q13 -51 32.5 -133.5t45 -194t41.5 -178.5q17 -68 42.5 -174.5t29.5 -124.5q0 -7 10.5 -18.5t28.5 -11.5q29 0 39 30l211 897q3 14 15 21.5t25 3.5q14 -3 22 -15q5 -9 6 -18q0 -4 -1 -8l-211 -897q-7 -30 -35 -57t-71 -27t-72.5 27.5t-34.5 56.5q-5 21 -17 71.5 t-23.5 100.5t-22.5 96l-64 -268q-7 -30 -35 -57t-71 -27t-72.5 27.5t-34.5 56.5q-6 25 -30 128.5t-41 170.5q-109 465 -119 506q-6 29 -29 47t-53 18q-13 0 -24 11t-11 24z" />
<glyph unicode="x" horiz-adv-x="894" d="M0 989q0 14 10 24.5t25 10.5q83 0 131 -74l231 -372l267 430q7 12 21 15t26 -5t15.5 -21.5t-3.5 -25.5l-285 -459l248 -401q24 -41 72 -41q15 0 25 -10.5t10 -24.5t-10 -24.5t-25 -10.5q-83 0 -131 74l-230 372l-268 -430q-7 -12 -21 -15q-5 -1 -9 -1q-9 0 -17 4 q-12 7 -15 22t5 27l284 459l-250 401q-24 41 -71 41q-15 0 -25 10.5t-10 24.5z" />
<glyph unicode="y" horiz-adv-x="882" d="M0 989q0 13 11 24t24 11q54 0 95.5 -33t53.5 -86q78 -311 213 -807q6 -16 19 -22q39 123 112.5 352t122.5 382t60 189q5 14 18.5 20.5t26.5 2.5q14 -5 20 -18q4 -7 4 -15q0 -5 -2 -10t-191 -593.5t-192 -598.5q-14 -45 -50 -75t-83 -34q-4 -2 -14 -2h-119q-13 0 -24 11 t-11 24q0 15 10.5 25t24.5 10h119q1 0 4 1t4 1q26 1 46 17.5t28 41.5q0 1 7 24t24 75.5t32 101.5q-48 20 -61 72q-129 462 -215 809q-6 29 -29 47t-53 18q-13 0 -24 11t-11 24z" />
<glyph unicode="z" horiz-adv-x="806" d="M102 154q0 35 21 75l461 664q13 19 2 40t-35 21h-369q-14 0 -24.5 11t-10.5 24t10.5 24t24.5 11h369q62 0 94 -58q15 -27 15 -54q0 -30 -19 -58v-2l-459 -659q-10 -17 -10 -39q0 -34 24.5 -58t59.5 -26h297q31 0 55 21.5t27 53.5v9q0 13 10.5 23.5t24.5 10.5q15 0 25 -10 t10 -24v-15q-6 -60 -49.5 -99.5t-102.5 -39.5h-111h-186q-62 0 -108 45t-46 109z" />
<glyph unicode="{" horiz-adv-x="409" d="M0 469v6q0 12 10.5 21.5t24.5 9.5q34 0 58.5 24.5t25.5 59.5v379q0 91 46 170t124 123q12 7 26.5 3t20.5 -16q7 -12 3.5 -25.5t-15.5 -21.5q-62 -35 -99 -98t-37 -135v-379q0 -71 -55 -119q55 -45 55 -117v-379q0 -72 37 -135t99 -98q12 -8 15.5 -22.5t-3.5 -26.5 q-6 -12 -20.5 -15t-26.5 3q-78 46 -124 125t-46 169v379q0 32 -22.5 57t-61.5 25q-14 0 -24.5 10t-10.5 23z" />
<glyph unicode="|" horiz-adv-x="274" d="M102 -289v1518q0 13 11 24t24 11t24 -11t11 -24v-1518q0 -15 -10.5 -25t-24.5 -10t-24.5 10t-10.5 25z" />
<glyph unicode="}" horiz-adv-x="409" d="M2.5 -280.5q3.5 14.5 15.5 22.5q62 35 99 98t37 135v379q0 72 55 117q-55 48 -55 119v379q0 72 -37 135t-99 98q-12 8 -15.5 21.5t3.5 25.5q6 12 20.5 16t26.5 -3q78 -44 124 -123t46 -170v-379q1 -35 25.5 -59.5t58.5 -24.5q14 0 24.5 -9.5t10.5 -21.5v-6 q0 -13 -10.5 -23t-24.5 -10q-39 0 -61.5 -25t-22.5 -57v-379q0 -90 -46 -169t-124 -125q-12 -6 -26.5 -3t-20.5 15q-7 12 -3.5 26.5z" />
<glyph unicode="~" horiz-adv-x="960" d="M63 510q0 83 58 141t141 58q41 0 84 -19l305 -129q28 -8 47 -8q54 0 92.5 38.5t38.5 92.5q0 14 10.5 24.5t24.5 10.5t24.5 -10.5t10.5 -24.5q0 -83 -59 -142t-142 -59q-36 0 -73 15l-308 129q-24 12 -55 12q-54 0 -91.5 -37.5t-37.5 -91.5q0 -15 -10.5 -25t-24.5 -10 q-15 0 -25 10t-10 25z" />
<glyph unicode="&#xad;" horiz-adv-x="645" d="M102 586q0 14 11 24.5t24 10.5h371q15 0 25 -10.5t10 -24.5q0 -15 -10 -25t-25 -10h-371q-14 0 -24.5 10t-10.5 25z" />
<glyph unicode="&#x401;" horiz-adv-x="798" d="M102 182v901q0 75 54 129t129 54h377q14 0 24 -10t10 -25q0 -14 -10.5 -24.5t-23.5 -10.5h-377q-47 0 -80 -33t-33 -80v-456q53 43 117 43h3h3h3h3h3h3h3h3h3h3h3h3h3h3h3h3h3h3h3h3h3h3h3h3h3h3h3h3h3h3h3h3h3h3h3h3h3h3h3h3h3h3h3h3h3h3h3h3h3h3h2h3h3h3h3h3h3h3h3h3h3 h3h3h2h10q48 0 80 32q11 10 26 10t26 -10q9 -10 8 -25t-11 -24q-53 -53 -129 -53h-200q-48 0 -82.5 -35t-34.5 -84v-299q0 -42 33 -80q32 -32 80 -32h377q13 0 23.5 -10.5t10.5 -24.5t-10.5 -24.5t-23.5 -10.5h-377q-76 0 -129 53q-54 54 -54 129zM233 1427v107 q0 15 10.5 25t24.5 10q15 0 25 -10t10 -25v-107q0 -14 -10 -24t-25 -10q-14 0 -24.5 10.5t-10.5 23.5zM496 1427v107q0 15 10 25t24 10q15 0 25 -10t10 -25v-107q0 -14 -10 -24t-25 -10q-14 0 -24 10.5t-10 23.5z" />
<glyph unicode="&#x410;" horiz-adv-x="1005" d="M104 43q0 2 55 235.5t127.5 539.5t82.5 349q7 37 40.5 69t84.5 32q52 0 85 -31.5t42 -69.5q76 -342 237 -1009q7 -38 39 -63t72 -25q14 0 24.5 -10t10.5 -25q0 -13 -11 -24t-24 -11q-64 0 -115 39.5t-66 101.5q-16 69 -120.5 516t-114.5 494q-16 47 -59 47 q-25 0 -40.5 -16.5t-17.5 -30.5q-71 -294 -153 -649q38 18 82 18h94q30 0 61 17q12 7 25.5 3t21.5 -16q7 -12 3.5 -25.5t-15.5 -21.5q-34 -23 -96 -26h-94q-40 0 -72 -25.5t-43 -63.5q-19 -82 -38.5 -166t-29.5 -125t-10 -42q-3 -15 -15.5 -22.5t-27.5 -4.5q-13 3 -20.5 15 t-4.5 26z" />
<glyph unicode="&#x411;" horiz-adv-x="989" d="M2 211q-3 14 4.5 27t20.5 16q33 10 65 10q60 0 111 -28l205 -130q62 -36 139 -36q111 0 190.5 79t79.5 191v154q0 112 -79.5 191t-190.5 79q-113 0 -192 -79t-79 -191v-105q0 -15 -10 -25t-24 -10q-15 0 -25 10t-10 25v694q0 74 53.5 128.5t128.5 54.5h377q14 0 24.5 -11 t10.5 -24t-10.5 -24t-24.5 -11h-377q-47 0 -80 -33.5t-33 -79.5v-383q46 62 117.5 98t153.5 36q140 0 240 -99.5t100 -240.5v-154q0 -141 -100 -240.5t-240 -99.5q-94 0 -174 47l-203 127q-44 21 -78 21q-19 0 -47 -7q-13 -4 -25.5 2.5t-17.5 20.5z" />
<glyph unicode="&#x412;" horiz-adv-x="1015" d="M2 211q-7 33 25 43q33 10 65 10q59 0 113 -28l205 -130q59 -36 137 -36h26q113 0 192 79t79 191t-79 191t-192 79h-32q-13 0 -24 11t-11 24q0 15 10.5 25t24.5 10q106 0 179 75.5t73 184.5q0 106 -76 181t-182 75l-146 2q-46 0 -79.5 -34.5t-33.5 -80.5v-694 q0 -15 -10 -25t-24 -10t-24.5 10t-10.5 25v694q0 75 53.5 129t128.5 54h146q135 0 231 -95.5t96 -230.5q0 -136 -92 -231q-36 -36 -68 -54q95 -39 153 -124.5t58 -190.5q0 -141 -99.5 -240.5t-240.5 -99.5h-26q-94 0 -174 47l-203 127q-38 21 -78 21q-20 0 -45 -7 q-13 -4 -26.5 2.5t-18.5 20.5z" />
<glyph unicode="&#x413;" horiz-adv-x="757" d="M102 35v1048q0 75 54 129t129 54h377q14 0 24 -10t10 -25q0 -14 -10.5 -24.5t-23.5 -10.5h-377q-47 0 -80 -33t-33 -80v-1048q0 -13 -11 -24t-24 -11q-15 0 -25 10.5t-10 24.5z" />
<glyph unicode="&#x414;" horiz-adv-x="1167" d="M41 -166q0 97 69 166.5t166 69.5h576v1013q0 42 -33 80q-38 33 -82 33h-49q-159 0 -268 -106q-111 -105 -111 -252v-533q0 -26 14 -46t42 -23q13 0 22.5 -11.5t7.5 -25.5t-13 -23t-26 -8q-51 5 -83.5 42.5t-32.5 94.5v533q0 176 133 303q121 116 315 125h49q77 0 131 -54 q54 -57 54 -131v-1015q85 -12 141.5 -77.5t56.5 -154.5q0 -14 -10 -24.5t-25 -10.5q-13 0 -23.5 10.5t-10.5 24.5q0 69 -48 117.5t-116 48.5h-611q-69 0 -117 -48.5t-48 -117.5q0 -14 -10 -24.5t-25 -10.5q-14 0 -24.5 10.5t-10.5 24.5z" />
<glyph unicode="&#x415;" horiz-adv-x="798" d="M102 182v901q0 75 54 129t129 54h377q14 0 24 -10t10 -25q0 -14 -10.5 -24.5t-23.5 -10.5h-377q-47 0 -80 -33t-33 -80v-456q53 43 117 43h3h3h3h3h3h3h3h3h3h3h3h3h3h3h3h3h3h3h3h3h3h3h3h3h3h3h3h3h3h3h3h3h3h3h3h3h3h3h3h3h3h3h3h3h3h3h3h3h3h3h2h3h3h3h3h3h3h3h3h3h3 h3h3h2h10q48 0 80 32q11 10 26 10t26 -10q9 -10 8 -25t-11 -24q-53 -53 -129 -53h-200q-48 0 -82.5 -35t-34.5 -84v-299q0 -42 33 -80q32 -32 80 -32h377q13 0 23.5 -10.5t10.5 -24.5t-10.5 -24.5t-23.5 -10.5h-377q-76 0 -129 53q-54 54 -54 129z" />
<glyph unicode="&#x416;" horiz-adv-x="1630" d="M102 35q0 14 10 24.5t25 10.5q31 0 58.5 16t42.5 43l6 12q0 7 155 381q27 64 85 105t132 41q11 0 15 -2l-387 446q-43 53 -43 119q0 13 10.5 24t24.5 11q13 0 23.5 -10.5t10.5 -24.5q0 -40 27 -74l483 -557v631q0 13 11 24t24 11t24 -11t11 -24v-631l483 557q27 30 27 74 q0 13 11 24t24 11q15 0 25 -10.5t10 -24.5q0 -69 -44 -119l-387 -446q4 2 15 2q74 0 132 -41t85 -105q155 -374 155 -381q1 -2 3.5 -6t3.5 -6q15 -27 42 -43t58 -16q15 0 25 -10.5t10 -24.5q0 -15 -10 -25t-25 -10q-51 0 -94 26t-68 70q-1 3 -4 9.5t-4 9.5q-1 1 -30.5 72 t-72.5 175.5t-55 133.5q-22 47 -61.5 74.5t-89.5 27.5q-65 0 -115 -47q-49 -52 -49 -119v-397q0 -15 -10.5 -25t-24.5 -10t-24.5 10t-10.5 25v397q0 70 -49 119q-50 47 -115 47q-50 0 -89.5 -27.5t-61.5 -74.5q-12 -29 -55 -133.5t-72.5 -175.5t-30.5 -72q-5 -14 -8 -19 q-25 -44 -68 -70t-94 -26q-15 0 -25 10t-10 25z" />
<glyph unicode="&#x417;" horiz-adv-x="827" d="M104 1145q0 15 9 24q97 97 231 97q135 0 231.5 -96.5t96.5 -231.5q0 -136 -92 -231q-36 -36 -68 -54q95 -37 154 -122.5t59 -190.5q0 -141 -100 -240.5t-240 -99.5h-29q-141 0 -239 98q-11 10 -11 25t11 24q11 11 25 11t24 -11q80 -77 190 -77h29q111 0 190.5 79 t79.5 191t-79.5 191t-190.5 79h-27q-77 0 -131 54q-9 10 -9 25t9 24q11 11 25.5 11t23.5 -11q33 -30 74 -33q106 0 179 75.5t73 182.5t-76 182.5t-182 75.5t-182 -76q-9 -9 -23.5 -9t-25.5 9q-9 10 -9 25z" />
<glyph unicode="&#x418;" horiz-adv-x="1024" d="M61 1231q0 13 10.5 24t24.5 11h19q71 -8 118.5 -60.5t47.5 -122.5v-952q0 -17 4 -25q13 -36 55 -36q20 0 36.5 12t20.5 31l265 1056q11 43 45.5 70t78.5 27q40 0 73 -22.5t48 -59.5q8 -28 8 -45v-1104q0 -15 -10 -25t-24 -10t-24.5 10t-10.5 25v1100q0 16 -4 24 q-13 37 -56 37q-20 0 -36.5 -12t-20.5 -31l-264 -1057q-10 -43 -45.5 -69.5t-79.5 -26.5q-40 0 -73 22.5t-48 59.5q-8 28 -8 45v956q0 43 -29.5 76t-72.5 37h-13q-14 0 -24.5 11t-10.5 24z" />
<glyph unicode="&#x419;" horiz-adv-x="1024" d="M61 1231q0 13 10.5 24t24.5 11h19q71 -8 118.5 -60.5t47.5 -122.5v-952q0 -17 4 -25q13 -36 55 -36q20 0 36.5 12t20.5 31l265 1056q11 43 45.5 70t78.5 27q40 0 73 -22.5t48 -59.5q8 -28 8 -45v-1104q0 -15 -10 -25t-24 -10t-24.5 10t-10.5 25v1100q0 16 -4 24 q-13 37 -56 37q-20 0 -36.5 -12t-20.5 -31l-264 -1057q-10 -43 -45.5 -69.5t-79.5 -26.5q-40 0 -73 22.5t-48 59.5q-8 28 -8 45v956q0 43 -29.5 76t-72.5 37h-13q-14 0 -24.5 11t-10.5 24zM210 1535q0 15 11 24q11 11 25 11t24 -11q76 -76 183 -76h127q106 0 182 76 q9 11 23.5 11t25.5 -11q9 -9 9 -24t-9 -26q-96 -96 -231 -96h-127q-136 0 -232 96q-11 11 -11 26z" />
<glyph unicode="&#x41a;" horiz-adv-x="1085" d="M41 1231q0 14 10 24.5t25 10.5q75 0 129.5 -54.5t54.5 -130.5v-481l531 551q34 30 34 80q0 14 10 24.5t25 10.5q14 0 24.5 -11t10.5 -24q0 -76 -55 -131l-418 -432h2q67 0 123.5 -35.5t85.5 -95.5l223 -408q32 -59 102 -59q14 0 24.5 -11t10.5 -24q0 -15 -10.5 -25 t-24.5 -10q-51 0 -94.5 26t-66.5 70l-226 410q-22 42 -61 67t-86 25q-68 0 -116 -48.5t-48 -117.5v-397q0 -15 -10.5 -25t-24.5 -10q-15 0 -25 10t-10 25v1046q0 47 -33.5 81t-80.5 34q-15 0 -25 10t-10 25z" />
<glyph unicode="&#x41b;" horiz-adv-x="1032" d="M102 35q0 14 10 24.5t25 10.5q43 0 80 32q33 33 33 80v656q0 178 131 303q134 125 317 125h50q75 0 129 -54q53 -53 53 -129v-1048q0 -15 -10 -25t-25 -10q-14 0 -24.5 10t-10.5 25v1048q0 47 -33 80t-79 33h-50q-159 0 -268 -106q-111 -105 -111 -252v-656 q0 -76 -53 -129t-129 -53q-15 0 -25 10t-10 25z" />
<glyph unicode="&#x41c;" horiz-adv-x="1413" d="M102 35v1102q0 54 38.5 91.5t90.5 37.5q40 0 74.5 -23.5t48.5 -64.5q4 -12 293 -1018q289 1006 293 1018q14 41 48.5 64.5t74.5 23.5q52 0 90.5 -37.5t38.5 -91.5l-2 -955q0 -44 29.5 -75.5t72.5 -36.5h13q13 0 23.5 -10.5t10.5 -24.5q0 -15 -10 -25t-24 -10h-19 q-71 6 -118.5 58t-47.5 124v955q0 26 -16 42.5t-41 16.5q-19 0 -35 -11t-20 -28q-3 -7 -326 -1132q-3 -11 -13 -18t-22 -7t-22 7t-13 18q-324 1130 -325 1132q-4 17 -20.5 28t-35.5 11q-25 0 -42 -17t-17 -42v-1102q0 -15 -10 -25t-25 -10q-14 0 -24.5 10t-10.5 25z" />
<glyph unicode="&#x41d;" horiz-adv-x="1085" d="M61 1231q0 14 10 24.5t25 10.5h17q70 -7 118 -59.5t50 -123.5v-483q68 68 163 68h213q68 0 116 48.5t48 117.5v397q0 13 10.5 24t24.5 11t24.5 -11t10.5 -24v-1049q0 -44 29.5 -75.5t72.5 -36.5h13q13 0 23.5 -10.5t10.5 -24.5q0 -15 -10 -25t-24 -10h-19 q-71 6 -118.5 58t-47.5 124v484q-71 -68 -164 -68h-213q-67 0 -115 -48t-48 -116v-399q0 -15 -10.5 -25t-24.5 -10q-15 0 -25 10t-10 25v1048q-2 43 -31.5 76t-73.5 37h-10q-15 0 -25 10.5t-10 24.5z" />
<glyph unicode="&#x41e;" horiz-adv-x="1003" d="M2 1055q3 13 16 20t27 2q21 -6 45 -6q38 0 78 19l203 129q80 47 174 47q139 0 239.5 -100t100.5 -240v-586q0 -141 -100 -240.5t-240 -99.5q-141 0 -240.5 99.5t-99.5 240.5v537q0 13 10.5 23.5t24.5 10.5t24 -10.5t10 -23.5v-537q0 -112 79 -191t192 -79t191.5 79 t78.5 191v586q0 112 -78.5 191t-191.5 79q-73 0 -137 -39l-205 -127q-56 -29 -113 -29q-35 0 -65 9q-14 5 -20.5 18.5t-2.5 26.5z" />
<glyph unicode="&#x41f;" horiz-adv-x="884" d="M102 35v1048q0 75 54 129t129 54h315q75 0 129 -54q53 -53 53 -131v-1046q0 -15 -10 -25t-24 -10t-24.5 10t-10.5 25v1048q0 42 -33 80q-38 33 -80 33h-315q-47 0 -80 -33t-33 -80v-1048q0 -15 -10.5 -25t-24.5 -10q-15 0 -25 10t-10 25z" />
<glyph unicode="&#x420;" horiz-adv-x="839" d="M102 35v211q0 107 53.5 201.5t147.5 154.5q5 5 354 223q56 37 56 101v4q-1 110 -81 188t-190 78h-157q-42 0 -80 -33q-33 -38 -33 -82v-262q0 -23 18 -41l27 -22q11 -9 12 -23.5t-8 -25.5t-23.5 -12.5t-25.5 7.5l-29 25q-41 38 -41 92v262q0 77 54 131q57 54 129 54h157 q141 0 240.5 -100t99.5 -240v-4q-3 -102 -88 -156q-349 -218 -354 -223q-78 -50 -123 -129t-45 -168v-211q0 -15 -10 -25t-25 -10q-14 0 -24.5 10t-10.5 25z" />
<glyph unicode="&#x421;" horiz-adv-x="778" d="M102 340v588q0 140 99.5 239t240.5 99t240 -99q10 -11 10 -25t-10 -24q-9 -10 -23.5 -10t-25.5 10q-77 80 -191 80q-112 0 -191 -79.5t-79 -190.5v-588q0 -112 79 -191t191 -79q117 0 191 77q11 11 25.5 11t23.5 -11q10 -9 10 -24t-10 -25q-98 -98 -240 -98 q-141 0 -240.5 99.5t-99.5 240.5z" />
<glyph unicode="&#x422;" horiz-adv-x="921" d="M61 1081v15q6 70 59 119t124 51h585q13 0 24 -11t11 -24q0 -14 -11 -24.5t-24 -10.5h-331v-1161q0 -13 -10.5 -24t-24.5 -11t-24.5 10t-10.5 25v1161h-184q-44 -2 -77 -31.5t-36 -72.5v-11q0 -13 -10.5 -23.5t-24.5 -10.5t-24.5 9.5t-10.5 24.5z" />
<glyph unicode="&#x423;" horiz-adv-x="974" d="M0 1231q0 13 11 24t24 11q63 0 113 -39.5t65 -102.5q98 -391 229 -862q10 -30 35 -39l328 1018q3 13 16 20.5t27 2.5t20 -17.5t2 -25.5l-350 -1090q-15 -54 -58 -89.5t-100 -41.5h-18h-147q-15 0 -25 10t-10 25q0 14 10 24.5t25 10.5h147h12q35 3 61.5 25.5t37.5 56.5 l2 6q-29 9 -51 32t-31 54q-185 683 -230 864q-9 38 -39.5 63t-70.5 25q-13 0 -24 11t-11 24z" />
<glyph unicode="&#x424;" horiz-adv-x="1210" d="M102 369v526q0 127 91 218t219 91q83 0 159 -45v49q-2 38 -27 66t-63 31h-10q-14 0 -24.5 10.5t-10.5 23.5q0 15 10.5 25t24.5 10h16q64 -6 108 -53.5t46 -112.5v-1020q65 -59 158 -59q100 0 169.5 70t69.5 170v526q0 99 -70 169.5t-169 70.5h-8q-14 0 -24.5 9.5 t-10.5 24.5q0 13 11 24t24 11h8q129 0 219 -90.5t90 -218.5v-526q0 -129 -90 -219.5t-219 -90.5q-88 0 -158 43v-172q0 -15 -10.5 -24.5t-24.5 -9.5q-15 0 -25 9.5t-10 24.5v1143q-72 62 -159 62q-99 0 -169.5 -70.5t-70.5 -169.5v-526q0 -100 70 -170t170 -70h8 q14 0 24.5 -10.5t10.5 -24.5q0 -15 -10.5 -25t-24.5 -10h-8q-128 0 -219 90.5t-91 219.5z" />
<glyph unicode="&#x425;" horiz-adv-x="1081" d="M0 1231q0 13 11 24t24 11q94 0 151 -80q1 -2 42.5 -68.5t117 -188.5t143.5 -231l342 551q7 12 21.5 15.5t26.5 -4.5t15.5 -22t-3.5 -26l-361 -579l320 -514q36 -49 94 -49q14 0 24.5 -11t10.5 -24q0 -15 -10.5 -25t-24.5 -10q-44 0 -84.5 20.5t-66.5 57.5q0 4 -304 487 l-342 -549q-8 -12 -21.5 -15.5t-25.5 3.5q-12 8 -15.5 22.5t3.5 26.5l361 580q-317 511 -320 514q-32 49 -94 49q-14 0 -24.5 10t-10.5 25z" />
<glyph unicode="&#x426;" horiz-adv-x="1191" d="M61 1233q0 13 10.5 24t24.5 11l19 -2q69 -6 116.5 -58t49.5 -123v-901q0 -48 32 -80q30 -34 80 -34h428v1163q0 13 10.5 24t24.5 11t24.5 -11t10.5 -24v-1165q85 -12 142 -78t57 -154q0 -14 -10 -24.5t-25 -10.5q-13 0 -24 10.5t-11 24.5q0 68 -48 116t-116 48h-463 q-77 3 -129 55q-53 53 -53 129v901q0 43 -30.5 76t-74.5 37h-10q-14 0 -24.5 10t-10.5 25z" />
<glyph unicode="&#x427;" horiz-adv-x="931" d="M0 1231q0 13 11 24t24 11q77 0 131 -54q53 -53 53 -131v-155q0 -65 55 -101q356 -222 357 -223q12 -7 28 -20q66 58 84 71q17 20 17 43v535q0 13 11 24t24 11q15 0 24.5 -10.5t9.5 -24.5v-537q0 -54 -38 -92q-2 -2 -14.5 -12t-31.5 -25.5t-32 -27.5q116 -125 116 -291 v-211q0 -15 -9.5 -25t-24.5 -10q-14 0 -24.5 10t-10.5 25v211q0 89 -44 168.5t-122 130.5q-2 0 -356 221q-41 26 -64.5 68.5t-23.5 91.5v155q0 49 -33 82q-38 33 -82 33q-13 0 -24 11t-11 24z" />
<glyph unicode="&#x428;" horiz-adv-x="1380" d="M61 1231q0 14 10 24.5t25 10.5h17q71 -8 118.5 -60.5t47.5 -122.5v-901q0 -46 34 -80q32 -32 80 -32h316v1161q0 14 10.5 24.5t23.5 10.5t24 -11t11 -24v-1161h316q45 0 82 32q32 37 32 80v1049q0 14 10 24.5t25 10.5q13 0 24 -11t11 -24v-1049q0 -73 -53 -129 q-53 -53 -131 -53h-701q-79 0 -129 53q-55 55 -55 129v901q0 43 -29.5 76t-73.5 37h-10q-15 0 -25 10.5t-10 24.5z" />
<glyph unicode="&#x429;" horiz-adv-x="1579" d="M61 1233q0 14 10 24.5t25 10.5l17 -2q70 -6 118 -58t50 -123v-901q-3 -49 32 -80q30 -34 80 -34h316v1163q0 14 10.5 24.5t23.5 10.5q15 0 25 -10.5t10 -24.5v-1163h430v1163q0 13 11 24t24 11t24 -11t11 -24v-1165q85 -12 142 -78t57 -154q0 -14 -10 -24.5t-25 -10.5 q-14 0 -24.5 10.5t-10.5 24.5q0 68 -48.5 116t-115.5 48h-850q-80 3 -129 55q-56 56 -53 129v901q-2 43 -31.5 76t-73.5 37h-10q-15 0 -25 10t-10 25z" />
<glyph unicode="&#x42a;" horiz-adv-x="1089" d="M0.5 1274.5q-0.5 14.5 9.5 25.5q9 10 24.5 9.5t24.5 -9.5q32 -32 82 -32l70 -2q69 -6 117.5 -60t48.5 -123v-383q47 63 117.5 99.5t152.5 36.5q141 0 240.5 -100t99.5 -240v-156q0 -140 -99.5 -240t-240.5 -100q-94 0 -174 47l-203 127q-37 21 -77 21q-21 0 -46 -7 q-13 -4 -26.5 3.5t-18.5 21.5q-3 14 4.5 26.5t20.5 16.5q27 8 66 8q58 0 112 -28l205 -127q59 -39 137 -39q113 0 192 79t79 191v156q0 111 -79.5 190.5t-191.5 79.5t-191 -79.5t-79 -190.5v-107q0 -13 -10.5 -24t-24.5 -11t-24.5 11t-10.5 24v694q0 43 -30 76t-74 37h-62 q-76 0 -131 55q-9 9 -9.5 23.5z" />
<glyph unicode="&#x42b;" horiz-adv-x="1355" d="M2 211q-5 14 2.5 27t20.5 16q38 10 65 10q59 0 113 -28l205 -130q59 -36 137 -36q113 0 191.5 79t78.5 191v154q0 112 -78.5 191t-191.5 79q-111 0 -191 -79t-80 -191v-105q0 -15 -9.5 -25t-24.5 -10q-14 0 -24.5 10t-10.5 25v692q0 44 -30 77t-73 38h-12q-14 0 -24.5 11 t-10.5 24t10.5 24t24.5 11h19q69 -8 117 -61.5t48 -123.5v-381q49 62 119.5 98t151.5 36q141 0 240.5 -99.5t99.5 -240.5v-154q0 -141 -99.5 -240.5t-240.5 -99.5q-95 0 -172 47l-205 127q-40 21 -78 21q-20 0 -45 -7q-14 -5 -27 2.5t-16 20.5zM1034 182v1049q0 14 10 24.5 t25 10.5q13 0 24 -11t11 -24v-1049q0 -44 29.5 -75.5t72.5 -36.5h13q13 0 23.5 -10.5t10.5 -24.5q0 -15 -10 -25t-24 -10h-19q-71 8 -118.5 60t-47.5 122z" />
<glyph unicode="&#x42c;" horiz-adv-x="989" d="M2 211q-3 14 4.5 27t20.5 16q33 10 65 10q60 0 111 -28l207 -130q59 -36 137 -36q113 0 191.5 79t78.5 191v154q0 112 -78.5 191t-191.5 79t-192 -79t-79 -191v-105q0 -15 -10 -25t-24 -10q-15 0 -25 10t-10 25v692q0 44 -30.5 77t-74.5 38h-10q-15 0 -25 10.5t-10 24.5 t10 24.5t25 10.5h17q70 -7 118.5 -60.5t48.5 -124.5v-381q47 62 118.5 98t152.5 36q140 0 240 -99.5t100 -240.5v-154q0 -141 -100 -240.5t-240 -99.5q-94 0 -174 47l-203 127q-44 21 -78 21q-19 0 -47 -7q-13 -4 -25.5 2.5t-17.5 20.5z" />
<glyph unicode="&#x42d;" horiz-adv-x="796" d="M104 122q0 14 9 25t24.5 11t24.5 -11q79 -79 192 -79q110 0 190.5 80t80.5 190v141q0 49 -34.5 84t-84.5 35h-152q-76 0 -129 53q-10 10 -10.5 25t8.5 24q11 10 26 10t25 -10q29 -29 74 -32h158q65 0 119 -41v299q0 112 -80 191t-191 79t-192 -78q-9 -10 -23.5 -10 t-25.5 10q-9 9 -9 23.5t9 25.5q104 99 241 99q140 0 240 -99.5t100 -240.5v-588q0 -139 -100 -238.5t-240 -99.5q-138 0 -241 98q-9 10 -9 24z" />
<glyph unicode="&#x42e;" horiz-adv-x="1339" d="M102 1231q0 13 11 24t24 11q77 0 131 -54t54 -131v-413h118q47 0 82 34.5t35 81.5v156q3 134 102.5 230t237.5 96q141 0 240.5 -99.5t99.5 -240.5v-586q0 -141 -99.5 -240.5t-240.5 -99.5q-140 0 -240 99.5t-100 240.5v147q0 13 10.5 24t24.5 11q15 0 25 -10.5t10 -24.5 v-147q0 -112 78.5 -191t191.5 -79t191.5 79t78.5 191v586q0 112 -78.5 191t-191.5 79q-109 0 -188 -76t-82 -182v-154q0 -76 -55 -131t-132 -55h-118v-563q0 -15 -10.5 -25t-24.5 -10t-24.5 10t-10.5 25v1046q0 47 -34 81t-81 34q-13 0 -24 11t-11 24z" />
<glyph unicode="&#x42f;" horiz-adv-x="1032" d="M102 35q0 14 10 24.5t25 10.5q31 0 58.5 15.5t40.5 41.5l188 414q39 70 108 104q-42 25 -110 68t-84 53q-40 26 -63.5 67.5t-24.5 88.5v4q0 140 100 240t240 100h158q72 0 129 -54q53 -53 53 -131v-262q0 -59 -39 -90l-29 -24q-14 -10 -28 -9.5t-23 11.5q-9 10 -7.5 26 t13.5 25l27 22q16 19 16 39v262q0 49 -33 82t-79 33h-158q-110 0 -190 -78t-81 -188v-4q0 -64 56 -101q33 -21 125.5 -79t160.5 -100.5t70 -43.5q94 -60 146.5 -154.5t52.5 -201.5v-211q0 -15 -10 -25t-25 -10q-14 0 -24.5 10t-10.5 25v211q0 89 -44 168.5t-122 128.5 q-1 1 -11.5 7t-32 19.5t-42.5 26.5q-38 -5 -71 -28t-50 -58l-188 -414q-25 -44 -68 -70t-94 -26q-15 0 -25 10t-10 25z" />
<glyph unicode="&#x430;" horiz-adv-x="782" d="M63 286q-5 77 30 149t106 118l272 174q55 36 55 102q0 52 -36 88.5t-87 36.5q-55 0 -88 -36q-11 -9 -25.5 -9t-23.5 9q-10 10 -10 25t10 24q57 57 137 57t136.5 -57t56.5 -138q0 -47 -23 -90t-63 -71l-274 -174q-77 -51 -99 -143t29 -173q52 -84 145 -102 q92 -22 173.5 29t103.5 145q6 24 6 51v195q0 12 -12 28q-2 1 -8 6t-9 7q-11 9 -12 23.5t8 25.5t23.5 12t25.5 -8l19 -17q32 -32 35 -77v-344q0 -31 21.5 -55t53.5 -27h9q13 0 23.5 -10.5t10.5 -24.5t-10.5 -24.5t-23.5 -10.5h-15q-49 4 -86 36.5t-49 78.5 q-41 -54 -104 -84.5t-132 -30.5q-77 0 -143.5 36t-109.5 105q-41 68 -46 145z" />
<glyph unicode="&#x431;" horiz-adv-x="761" d="M102 279v552q0 115 81.5 196t197.5 81h86q51 0 87 36t36 87q0 15 10.5 25t24.5 10t24 -10t10 -25q0 -80 -56.5 -136.5t-137.5 -56.5h-84q-86 0 -147.5 -60.5t-61.5 -146.5v-552q0 -86 61.5 -147.5t147.5 -61.5t147.5 61.5t61.5 147.5v309q0 86 -61.5 147.5t-147.5 61.5 q-33 0 -70 -13q-14 -6 -27.5 -0.5t-19.5 19.5q-5 14 1.5 27.5t19.5 17.5q47 18 96 18q115 0 196.5 -81t81.5 -197v-309q0 -116 -81.5 -197.5t-196.5 -81.5t-197 82t-82 197z" />
<glyph unicode="&#x432;" horiz-adv-x="808" d="M0 186q-2 14 8 26t23 13q54 5 106 -24l164 -103q51 -28 127 -28q87 0 148 61t61 148t-60.5 147.5t-148.5 60.5h-27q-15 0 -24.5 10.5t-9.5 24.5t10.5 24.5t23.5 10.5q83 0 139 57.5t56 141.5q0 83 -58.5 140.5t-140.5 57.5h-114q-35 0 -59.5 -24.5t-24.5 -59.5v-546 q0 -14 -10.5 -24.5t-24.5 -10.5q-15 0 -25 10.5t-10 24.5v546q0 63 45 108.5t109 45.5h114q110 0 189.5 -79t79.5 -189q0 -113 -76 -189q-22 -22 -43 -37q72 -34 116 -101.5t44 -149.5q0 -115 -81.5 -197t-197.5 -82q-97 0 -164 39l-162 102q-30 15 -65 15q-13 -1 -24 7.5 t-13 22.5z" />
<glyph unicode="&#x433;" horiz-adv-x="655" d="M102 35v835q0 63 45.5 108.5t108.5 45.5h299q15 0 25 -10t10 -25q0 -14 -10 -24.5t-25 -10.5h-299q-35 0 -59.5 -24.5t-24.5 -59.5v-835q0 -13 -11 -24t-24 -11t-24 11t-11 24z" />
<glyph unicode="&#x434;" horiz-adv-x="962" d="M41 -125q0 81 57.5 138t137.5 57h452v800q0 36 -24 60t-60 24h-39q-124 0 -209 -82q-86 -83 -86 -196v-426q0 -43 37 -47q14 -2 23 -13t8 -24q-2 -15 -13 -24.5t-26 -8.5q-43 4 -70.5 37.5t-27.5 79.5v426q0 145 106 248q106 100 258 100h39q64 0 109 -45t45 -109v-804 q68 -11 112.5 -65t44.5 -126q0 -14 -9.5 -24.5t-24.5 -10.5q-13 0 -24 11t-11 24q0 52 -36 88.5t-87 36.5h-487q-51 0 -88 -36.5t-37 -88.5q0 -14 -10 -24.5t-25 -10.5q-14 0 -24.5 11t-10.5 24z" />
<glyph unicode="&#x435;" horiz-adv-x="737" d="M102 279q0 70 34.5 132.5t94.5 102.5q15 10 314 156q18 8 31.5 29t13.5 46q0 86 -61.5 147.5t-147.5 61.5t-147.5 -61.5t-61.5 -147.5v-47q0 -16 12 -28q9 -9 17 -13q11 -9 12 -23.5t-8 -25.5q-9 -12 -24 -13.5t-25 7.5q-2 2 -9.5 8t-9.5 8q-32 37 -35 78v49 q0 115 82 197t197 82t196.5 -81.5t81.5 -197.5q0 -43 -23 -81t-61 -58q-22 -11 -103 -48.5t-129 -61.5t-75 -41q-45 -30 -70.5 -76.5t-25.5 -99.5q0 -86 61.5 -147.5t147.5 -61.5t147 61q10 9 25.5 9t24.5 -9q10 -11 10 -25.5t-10 -23.5q-82 -82 -197 -82t-197 82t-82 197z " />
<glyph unicode="&#x436;" horiz-adv-x="1310" d="M82 35q0 13 11 24t24 11q51 0 76 45q18 41 66 161.5t67 161.5q23 49 68.5 78t101.5 31l-299 344q-35 41 -35 98q0 14 10 24.5t25 10.5q14 0 24 -10t10 -25q0 -31 19 -53l373 -432v485q0 15 10 25t24 10q15 0 25 -10t10 -25v-485l375 432q18 21 18 53q0 15 10.5 25 t24.5 10q15 0 25 -10.5t10 -24.5q0 -57 -35 -98l-299 -344q56 -2 101.5 -31t68.5 -78q19 -41 67 -161.5t66 -161.5q25 -45 76 -45q14 0 24.5 -11t10.5 -24t-10.5 -24t-24.5 -11q-43 0 -79.5 21.5t-55.5 58.5q-10 20 -61 145.5t-76 182.5q-13 32 -44 50.5t-67 18.5 q-50 0 -87.5 -36.5t-37.5 -86.5v-319q0 -14 -10 -24.5t-25 -10.5q-13 0 -23.5 10.5t-10.5 24.5v317q0 50 -37 88t-86 37q-36 0 -67 -18.5t-44 -50.5q-25 -57 -76 -182.5t-61 -145.5q-19 -37 -55.5 -58.5t-79.5 -21.5q-13 0 -24 11t-11 24z" />
<glyph unicode="&#x437;" horiz-adv-x="714" d="M104 921q0 15 9 25q78 78 190 78q110 0 189 -79t79 -189q0 -141 -118 -226q72 -34 115.5 -101.5t43.5 -149.5q0 -116 -81.5 -197.5t-196.5 -81.5h-21q-117 0 -196 82q-11 9 -11 23.5t11 25.5q9 9 24 9t25 -9q61 -61 147 -61h21q87 0 148 61t61 148t-60.5 147.5 t-148.5 60.5h-27q-63 0 -108 45q-9 10 -9 25t9 25q11 10 25.5 10t23.5 -10q25 -25 59 -25q82 0 138.5 58t56.5 141t-58.5 140.5t-140.5 57.5q-81 0 -141 -57q-9 -11 -23.5 -11t-25.5 11q-9 9 -9 24z" />
<glyph unicode="&#x438;" d="M61 989q0 15 10 25t25 10h15q58 -6 97.5 -49.5t41.5 -102.5v-759q0 -40 39 -43q29 0 41 30l209 842q11 42 42.5 62t65.5 20q44 0 76.5 -32.5t32.5 -78.5v-878q0 -15 -10.5 -25t-24.5 -10q-15 0 -25 10.5t-10 24.5v876q0 40 -39 43q-27 0 -41 -28l-209 -844 q-11 -42 -42.5 -62t-65.5 -20q-44 0 -76.5 32.5t-32.5 78.5v761q-2 33 -23 56t-53 26h-8q-15 0 -25 10.5t-10 24.5z" />
<glyph unicode="&#x439;" d="M61 989q0 15 10 25t25 10h15q58 -6 97.5 -49.5t41.5 -102.5v-759q0 -40 39 -43q29 0 41 30l209 842q11 42 42.5 62t65.5 20q44 0 76.5 -32.5t32.5 -78.5v-878q0 -15 -10.5 -25t-24.5 -10q-15 0 -25 10.5t-10 24.5v876q0 40 -39 43q-27 0 -41 -28l-209 -844 q-11 -42 -42.5 -62t-65.5 -20q-44 0 -76.5 32.5t-32.5 78.5v761q-2 33 -23 56t-53 26h-8q-15 0 -25 10.5t-10 24.5zM184 1231q0 15 9 24q11 11 25.5 11t23.5 -11q60 -57 141 -57h100q82 0 142 57q9 11 24 11t25 -11q9 -9 9 -24t-9 -25q-81 -78 -191 -78h-100q-109 0 -190 78 q-9 10 -9 25z" />
<glyph unicode="&#x43a;" horiz-adv-x="921" d="M104 993q2 14 13 23t24 8q60 -6 100 -49.5t40 -102.5v-368l411 426q27 27 27 59q0 15 10 25t25 10q14 0 24 -10t10 -25q0 -64 -47 -108l-321 -334q51 -5 94 -33.5t66 -75.5l178 -323q23 -45 73 -45q13 0 24 -11t11 -24t-11 -24t-24 -11q-43 0 -79 21.5t-56 58.5l-178 328 q-37 69 -112 69q-51 0 -87.5 -36.5t-37.5 -88.5v-317q0 -14 -10 -24.5t-25 -10.5q-14 0 -24.5 11t-10.5 24v837q0 32 -22 55.5t-54 26.5q-14 2 -23 13t-8 26z" />
<glyph unicode="&#x43b;" d="M102 35q0 14 11 24.5t26 10.5q33 0 57.5 24.5t24.5 59.5v522q0 143 109 246q105 102 256 102h41q60 0 105.5 -45.5t45.5 -108.5v-835q0 -14 -10 -24.5t-25 -10.5q-13 0 -23.5 10.5t-10.5 24.5v835q0 34 -23.5 58.5t-58.5 25.5h-41q-124 0 -209 -82q-86 -83 -86 -196v-522 q0 -61 -45 -107.5t-107 -46.5q-15 0 -26 10.5t-11 24.5z" />
<glyph unicode="&#x43c;" horiz-adv-x="1204" d="M102 35v880q0 44 31.5 76.5t77.5 32.5q37 0 66.5 -21t39.5 -57l226 -784l223 784q11 34 39.5 55.5t66.5 22.5q46 0 78.5 -32.5t32.5 -76.5v-763q0 -31 22 -55t54 -27h8q13 0 24 -11t11 -24t-11 -24t-24 -11h-14q-60 6 -100 49.5t-40 102.5v763q0 17 -12 28t-29 11 q-28 0 -38 -28l-259 -901q-3 -11 -12.5 -18t-19.5 -7q-24 0 -35 25l-258 901q-9 28 -39 28q-16 0 -27.5 -10.5t-11.5 -28.5v-880q0 -13 -11 -24t-24 -11q-15 0 -25 10.5t-10 24.5z" />
<glyph unicode="&#x43d;" horiz-adv-x="942" d="M61 989q0 15 10.5 25t24.5 10h35q58 -6 97.5 -49.5t41.5 -102.5v-370q51 45 123 45h170q51 0 88 37t37 88v317q0 15 10 25t25 10q14 0 24.5 -10t10.5 -25v-837q0 -31 22 -55t54 -27h8q14 0 24.5 -11t10.5 -24t-10.5 -24t-24.5 -11h-15q-60 6 -99.5 49.5t-39.5 102.5v370 q-58 -45 -125 -45h-170q-51 0 -87 -36.5t-36 -88.5v-317q0 -14 -10.5 -24.5t-23.5 -10.5q-15 0 -25 10.5t-10 24.5v837q0 31 -22 55t-54 27h-29q-14 0 -24.5 11t-10.5 24z" />
<glyph unicode="&#x43e;" horiz-adv-x="839" d="M2 850q5 14 17.5 21t25.5 3q44 -15 94 11l162 100q62 39 141 39q115 0 197 -81t82 -195v-469q0 -115 -81.5 -197t-197.5 -82q-115 0 -195.5 81.5t-80.5 197.5v421q0 14 10 24.5t23 10.5q15 0 24.5 -10.5t9.5 -24.5v-421q0 -86 61.5 -147.5t147.5 -61.5t147.5 61.5 t61.5 147.5v469q0 86 -61 146t-148 60q-55 0 -106 -28l-162 -103q-63 -35 -147 -16q-13 4 -20.5 16.5t-4.5 26.5z" />
<glyph unicode="&#x43f;" horiz-adv-x="761" d="M102 35v835q0 61 45 107.5t107 46.5h252q62 0 107.5 -45t45.5 -109v-835q0 -14 -10.5 -24.5t-23.5 -10.5q-15 0 -25 10.5t-10 24.5v835q0 33 -24 58.5t-60 25.5h-250q-33 0 -58.5 -24t-25.5 -60v-835q0 -13 -11 -24t-24 -11t-24 11t-11 24z" />
<glyph unicode="&#x440;" horiz-adv-x="839" d="M102 989q0 13 11 24t24 11h15q42 -4 75.5 -28.5t48.5 -61.5l80 51h2q67 39 142 39q82 0 149.5 -43.5t102.5 -114.5q26 -60 26 -121v-176q0 -88 -73 -133q-30 -19 -101 -63.5t-126 -79t-56 -35.5q-61 -38 -96 -100t-35 -131v-316q0 -14 -10 -24.5t-25 -10.5 q-14 0 -24.5 11t-10.5 24v316q0 87 43.5 163.5t120.5 126.5q5 0 283 179q41 21 41 73v176q0 86 -61.5 147.5t-147.5 61.5q-56 0 -107 -28l-102 -66v-377q0 -5 1.5 -9.5t2.5 -7t5 -7t5 -5.5t7 -6.5t7 -5.5q11 -9 12.5 -23.5t-7.5 -25.5t-24 -12t-26 8l-7.5 7.5l-8.5 8.5 l-7.5 7.5t-7 8t-6 8.5t-6 9.5t-4 9.5t-3.5 11t-2 11t-1 13v387q0 32 -22 56.5t-54 27.5h-8q-13 0 -24 11t-11 24z" />
<glyph unicode="&#x441;" horiz-adv-x="675" d="M102 279v466q0 115 82 197t197 82t197 -82q10 -9 10 -23.5t-10 -25.5q-10 -9 -25 -9t-25 9q-61 61 -147 61t-147.5 -61.5t-61.5 -147.5v-466q0 -86 61.5 -147.5t147.5 -61.5t147 61q10 9 24.5 9t25.5 -9q10 -11 10 -25.5t-10 -23.5q-82 -82 -197 -82t-197 82t-82 197z " />
<glyph unicode="&#x442;" horiz-adv-x="778" d="M61 870q0 59 44.5 106.5t109.5 47.5h467q14 0 24.5 -10t10.5 -25q0 -13 -10.5 -24t-24.5 -11h-258v-919q0 -13 -11 -24t-24 -11t-24 11t-11 24v919h-139q-31 0 -57.5 -24t-26.5 -60q0 -14 -10 -24t-25 -10q-14 0 -24.5 10.5t-10.5 23.5z" />
<glyph unicode="&#x443;" horiz-adv-x="882" d="M0 989q0 15 10.5 25t24.5 10q54 0 95.5 -32.5t53.5 -84.5q60 -240 213 -809q4 -11 19 -22q39 123 112.5 352t122.5 382t60 189q5 14 18.5 20.5t26.5 2.5q14 -5 20 -17.5t2 -25.5q-2 -5 -191 -593.5t-192 -598.5q-14 -45 -50 -75t-83 -34h-133q-14 0 -24.5 10t-10.5 25 q0 13 11 24t24 11h127q58 7 74 59q0 2 63 201q-49 22 -61 72q-124 445 -215 811q-6 28 -29.5 45.5t-52.5 17.5q-13 0 -24 11t-11 24z" />
<glyph unicode="&#x444;" horiz-adv-x="1028" d="M102 279v466q0 115 81.5 197t195.5 82q51 0 100 -18v108q0 32 -22 55.5t-54 26.5h-8q-15 0 -25 10.5t-10 24.5q0 15 10 25t25 10h15q59 -6 98.5 -49t40.5 -103v-1020q47 -24 98 -24q86 0 147.5 61.5t61.5 147.5v466q0 78 -51.5 137t-126.5 70q-13 1 -23 13t-8 26 q1 13 13 23t26 8q102 -15 171 -93.5t69 -183.5v-466q0 -115 -82 -197t-197 -82q-51 0 -98 18v-270q0 -15 -10.5 -25t-24.5 -10q-15 0 -25 10t-10 25v1182q-46 24 -100 24q-86 0 -146.5 -61.5t-60.5 -147.5v-466q0 -77 51 -136t125 -71q15 -1 24 -12.5t7 -26.5 q-2 -14 -13 -23t-24 -8q-102 15 -171 93.5t-69 183.5z" />
<glyph unicode="&#x445;" horiz-adv-x="894" d="M0 989q0 14 10 24.5t25 10.5q83 0 131 -74l231 -372l267 430q7 12 21 15t26 -5t15.5 -21.5t-3.5 -25.5l-285 -459l248 -401q24 -41 72 -41q15 0 25 -10.5t10 -24.5t-10 -24.5t-25 -10.5q-83 0 -131 74l-230 372l-268 -430q-6 -12 -20.5 -15t-26.5 3q-12 7 -15 22t5 27 l284 459l-250 401q-24 41 -71 41q-15 0 -25 10.5t-10 24.5z" />
<glyph unicode="&#x446;" horiz-adv-x="942" d="M61 989q0 15 10 25t25 10h15q58 -6 97.5 -49.5t41.5 -102.5v-718q0 -33 24 -58.5t58 -25.5h336v919q0 15 9.5 25t24.5 10q14 0 24 -10t11 -25v-923q68 -12 113 -66t45 -125q0 -14 -10 -24.5t-25 -10.5q-14 0 -24.5 11t-10.5 24q0 52 -36 88.5t-87 36.5h-370 q-60 0 -106 46t-46 108v718q0 32 -22 55.5t-54 26.5h-8q-15 0 -25 10.5t-10 24.5z" />
<glyph unicode="&#x447;" horiz-adv-x="778" d="M0 989q0 15 10.5 25t24.5 10q62 0 107.5 -45t45.5 -109v-125q0 -49 41 -73q28 -17 100.5 -62.5t127 -79.5t55.5 -34q3 -2 7 -5.5t7 -5.5l6 -4q37 29 62 54q12 12 12 28v426q0 15 10 25t25 10q14 0 24.5 -10t10.5 -25v-426q0 -12 -2 -22.5t-9 -22t-11 -18t-16.5 -18.5 t-16 -15.5t-19.5 -17.5t-18 -15q92 -98 92 -229v-170q0 -13 -11 -24t-24 -11q-15 0 -25 10.5t-10 24.5v170q0 69 -34.5 130t-96.5 101q-5 0 -282 178q-74 46 -74 131v125q0 33 -24.5 58.5t-59.5 25.5q-13 0 -24 11t-11 24z" />
<glyph unicode="&#x448;" horiz-adv-x="1148" d="M61 989q0 15 10 25t25 10h15q59 -6 99 -50t40 -102v-718q0 -33 24 -58.5t60 -25.5h244v919q0 15 10 25t24 10q15 0 25 -10t10 -25v-919h246q33 0 58.5 24.5t25.5 59.5v835q0 15 10 25t25 10q14 0 24.5 -10t10.5 -25v-835q0 -63 -45.5 -108.5t-108.5 -45.5h-559 q-62 0 -108 45t-46 109v718q0 32 -22 55.5t-54 26.5h-8q-15 0 -25 10.5t-10 24.5z" />
<glyph unicode="&#x449;" horiz-adv-x="1249" d="M61 989q0 15 10.5 25t24.5 10h17q58 -6 97.5 -49.5t41.5 -102.5v-718q-3 -34 22 -59t60 -25h246v919q0 15 9.5 25t24.5 10q14 0 24.5 -10t10.5 -25v-919h328v919q0 15 10.5 25t24.5 10q15 0 24 -10t11 -25v-923q68 -12 113.5 -66t45.5 -125q0 -13 -11 -24t-24 -11 t-23.5 10.5t-10.5 24.5q0 53 -36.5 89t-88.5 36h-678q-63 0 -109.5 46t-42.5 108v718q-2 32 -24 55.5t-54 26.5h-8q-14 0 -24.5 11t-10.5 24z" />
<glyph unicode="&#x44a;" horiz-adv-x="905" d="M1.5 990q-0.5 15 8.5 24q10 10 25 10t24 -10q25 -25 62 -25h37q62 0 109.5 -45.5t47.5 -109.5v-248q84 94 209 94q116 0 197.5 -82t81.5 -197v-122q0 -115 -81.5 -197t-197.5 -82q-76 0 -143 39l-150 94q-63 33 -104 17q-14 -3 -27 4t-16 20q-4 13 2 25.5t20 17.5 q75 25 162 -24l150 -95q48 -28 106 -28q86 0 147.5 61.5t61.5 147.5v122q0 87 -61 148t-148 61t-148 -61t-61 -148v-75q0 -15 -10 -25t-24 -10q-15 0 -25 10t-10 25v508q0 35 -25.5 60.5t-62.5 25.5h-37q-64 0 -109 45q-10 10 -10.5 25z" />
<glyph unicode="&#x44b;" horiz-adv-x="1116" d="M2 174q-4 13 2.5 25.5t20.5 17.5q69 23 149 -16l14 -8l148 -95q51 -28 106 -28q86 0 147.5 61.5t61.5 147.5v122q0 87 -61 148t-148 61t-148 -61t-61 -148v-75q0 -15 -10 -25t-24 -10q-15 0 -25 10t-10 25v544q0 34 -25 59t-59 25q-15 0 -25 10.5t-10 24.5q0 15 10 25 t25 10q62 0 107.5 -45.5t45.5 -108.5v-284q84 94 209 94q116 0 197.5 -82t81.5 -197v-122q0 -115 -81.5 -197t-197.5 -82q-76 0 -143 39l-147 94q-24 17 -54 21.5t-53 -4.5q-13 -4 -26.5 3t-16.5 21zM825 152v837q0 15 10 25t25 10q14 0 24.5 -10t10.5 -25v-835 q0 -32 22 -56.5t54 -27.5h8q13 0 24 -11t11 -24t-11 -24t-24 -11h-14q-60 6 -100 49.5t-40 102.5z" />
<glyph unicode="&#x44c;" horiz-adv-x="823" d="M2 174q-4 13 2.5 25.5t20.5 17.5q69 23 149 -16l14 -8l148 -95q51 -28 106 -28q86 0 147.5 61.5t61.5 147.5v122q0 87 -61 148t-148 61t-148 -61t-61 -148v-75q0 -15 -10 -25t-24 -10q-15 0 -25 10t-10 25v544q0 34 -25 59t-59 25q-15 0 -25 10.5t-10 24.5q0 15 10 25 t25 10q62 0 107.5 -45.5t45.5 -108.5v-284q84 94 209 94q116 0 197.5 -82t81.5 -197v-122q0 -115 -81.5 -197t-197.5 -82q-76 0 -143 39l-147 94q-24 17 -54 21.5t-53 -4.5q-13 -4 -26.5 3t-16.5 21z" />
<glyph unicode="&#x44d;" horiz-adv-x="692" d="M104 105.5q0 14.5 11 25.5q9 9 24 9t25 -9q61 -61 147 -61t147.5 61.5t61.5 147.5v112q0 35 -25.5 60.5t-62.5 25.5h-121q-63 0 -108 45q-11 10 -11 24t11 25t25 11t24 -11q24 -24 59 -24h121q42 0 88 -27v225q0 86 -61.5 147.5t-147.5 61.5q-89 0 -147 -61 q-10 -9 -25 -9t-24 9q-11 11 -11 25.5t11 23.5q79 82 196 82q115 0 197 -82t82 -197v-466q0 -115 -82 -197t-197 -82q-117 0 -196 82q-11 9 -11 23.5z" />
<glyph unicode="&#x44e;" horiz-adv-x="1124" d="M102 989q0 15 10.5 25t24.5 10h15q60 -6 99.5 -49.5t39.5 -102.5v-325h88q35 0 60.5 25.5t25.5 62.5v123q3 110 84.5 188t193.5 78q115 0 197 -81t82 -195v-469q0 -115 -82 -197t-197 -82t-196.5 81.5t-81.5 197.5v110q0 13 10.5 24t24.5 11q15 0 25 -10.5t10 -24.5v-110 q0 -86 61 -147.5t147 -61.5t147.5 61.5t61.5 147.5v469q0 86 -61 146t-148 60q-85 0 -145 -57.5t-63 -140.5v-121q0 -65 -46 -111.5t-110 -46.5h-88v-442q0 -14 -10 -24.5t-25 -10.5q-14 0 -24.5 11t-10.5 24v837q0 32 -22 55.5t-54 26.5h-8q-13 0 -24 11t-11 24z" />
<glyph unicode="&#x44f;" horiz-adv-x="856" d="M78 35q0 13 11 24t24 11q51 0 73 43l150 329q27 52 78 80q-115 73 -144 90q-70 45 -73 133q0 116 81.5 197.5t196.5 81.5h125q63 0 108.5 -45.5t45.5 -108.5v-208q0 -20 -8.5 -38t-16.5 -27t-29 -30q-11 -9 -25.5 -8t-23.5 12q-9 12 -8 26.5t12 23.5q29 25 29 41v208 q0 33 -24 58.5t-60 25.5h-125q-86 0 -146.5 -59.5t-62.5 -144.5q0 -52 41 -78q272 -167 283 -178q77 -50 120.5 -127t43.5 -164v-168q0 -13 -11 -24t-24 -11q-15 0 -25 10.5t-10 24.5v168q0 70 -34.5 131.5t-96.5 101.5q-27 16 -64 39q-64 -10 -90 -63l-151 -332 q-20 -37 -56 -58.5t-79 -21.5q-13 0 -24 11t-11 24z" />
<glyph unicode="&#x451;" horiz-adv-x="761" d="M102 279q0 70 34.5 132.5t94.5 102.5q15 10 314 156q18 8 31.5 29t13.5 46q0 86 -61.5 147.5t-147.5 61.5t-147.5 -61.5t-61.5 -147.5v-47q0 -16 12 -28q9 -9 17 -13q11 -9 12 -23.5t-8 -25.5q-9 -12 -24 -13.5t-25 7.5q-2 2 -9.5 8t-9.5 8q-32 37 -35 78v49 q0 115 82 197t197 82t196.5 -81.5t81.5 -197.5q0 -43 -23 -81t-61 -58q-22 -11 -103 -48.5t-129 -61.5t-75 -41q-45 -30 -70.5 -76.5t-25.5 -99.5q0 -86 61.5 -147.5t147.5 -61.5t147 61q10 9 25.5 9t24.5 -9q10 -11 10 -25.5t-10 -23.5q-82 -82 -197 -82t-197 82t-82 197z M227 1147v84q0 15 10.5 25t24.5 10t24.5 -10t10.5 -25v-84q0 -13 -10.5 -24t-24.5 -11t-24.5 11t-10.5 24zM465 1147v84q0 15 10.5 25t24.5 10q15 0 25 -10t10 -25v-84q0 -14 -10 -24.5t-25 -10.5q-14 0 -24.5 11t-10.5 24z" />
<glyph unicode="&#x2000;" horiz-adv-x="785" />
<glyph unicode="&#x2001;" horiz-adv-x="1570" />
<glyph unicode="&#x2002;" horiz-adv-x="785" />
<glyph unicode="&#x2003;" horiz-adv-x="1570" />
<glyph unicode="&#x2004;" horiz-adv-x="523" />
<glyph unicode="&#x2005;" horiz-adv-x="392" />
<glyph unicode="&#x2006;" horiz-adv-x="261" />
<glyph unicode="&#x2007;" horiz-adv-x="261" />
<glyph unicode="&#x2008;" horiz-adv-x="196" />
<glyph unicode="&#x2009;" horiz-adv-x="314" />
<glyph unicode="&#x200a;" horiz-adv-x="87" />
<glyph unicode="&#x2010;" horiz-adv-x="645" d="M102 586q0 14 11 24.5t24 10.5h371q15 0 25 -10.5t10 -24.5q0 -15 -10 -25t-25 -10h-371q-14 0 -24.5 10t-10.5 25z" />
<glyph unicode="&#x2011;" horiz-adv-x="645" d="M102 586q0 14 11 24.5t24 10.5h371q15 0 25 -10.5t10 -24.5q0 -15 -10 -25t-25 -10h-371q-14 0 -24.5 10t-10.5 25z" />
<glyph unicode="&#x2012;" horiz-adv-x="645" d="M102 586q0 14 11 24.5t24 10.5h371q15 0 25 -10.5t10 -24.5q0 -15 -10 -25t-25 -10h-371q-14 0 -24.5 10t-10.5 25z" />
<glyph unicode="&#x2013;" horiz-adv-x="1228" d="M102 586q0 14 25.5 24.5t55.5 10.5h862q35 0 58 -10.5t23 -24.5q0 -15 -23 -25t-58 -10h-862q-32 0 -56.5 10t-24.5 25z" />
<glyph unicode="&#x2014;" horiz-adv-x="2252" d="M102 586q0 14 51 24.5t112 10.5h1722q70 0 116.5 -10.5t46.5 -24.5q0 -15 -46.5 -25t-116.5 -10h-1722q-65 0 -114 10t-49 25z" />
<glyph unicode="&#x2018;" horiz-adv-x="221" d="M0 1028v86q0 59 39.5 102.5t99.5 49.5h15q13 0 23.5 -10.5t10.5 -24.5t-10.5 -24.5t-23.5 -10.5h-9q-32 -3 -53.5 -27.5t-21.5 -56.5v-84q0 -14 -11 -24.5t-24 -10.5q-15 0 -25 10.5t-10 24.5z" />
<glyph unicode="&#x2019;" horiz-adv-x="221" d="M33 1028q0 14 10.5 24.5t24.5 10.5h8q32 3 54 27.5t22 56.5v84q0 14 10.5 24.5t23.5 10.5q15 0 25 -10.5t10 -24.5v-86q0 -59 -39.5 -102.5t-99.5 -49.5h-14q-14 0 -24.5 10.5t-10.5 24.5z" />
<glyph unicode="&#x201c;" horiz-adv-x="391" d="M2 1002q-4 14 2 26l127 221q6 12 20.5 16t26.5 -3q12 -6 16 -21t-4 -27l-124 -219q-7 -13 -21.5 -16.5t-26.5 2.5q-12 7 -16 21zM197.5 1002.5q-3.5 13.5 3.5 25.5l125 221q8 12 21.5 16t25.5 -3q13 -6 17 -21t-3 -27l-125 -219q-7 -13 -21.5 -16.5t-27.5 2.5 q-12 8 -15.5 21.5z" />
<glyph unicode="&#x201d;" horiz-adv-x="391" d="M2 1002q-4 14 2 26l127 221q6 12 20.5 16t26.5 -3q12 -6 16 -21t-4 -27l-124 -219q-7 -13 -21.5 -16.5t-26.5 2.5q-12 7 -16 21zM197.5 1002.5q-3.5 13.5 3.5 25.5l125 221q8 12 21.5 16t25.5 -3q13 -6 17 -21t-3 -27l-125 -219q-7 -13 -21.5 -16.5t-27.5 2.5 q-12 8 -15.5 21.5z" />
<glyph unicode="&#x202f;" horiz-adv-x="314" />
<glyph unicode="&#x205f;" horiz-adv-x="392" />
<glyph unicode="&#x20ac;" horiz-adv-x="1705" />
<glyph unicode="&#x25fc;" horiz-adv-x="1024" d="M0 0v1024h1024v-1024h-1024z" />
</font>
</defs>
</svg>
